G04 EAGLE Gerber RS-274X export*
G75*
%MOMM*%
%FSLAX34Y34*%
%LPD*%
%INTop Copper*%
%IPPOS*%
%AMOC8*
5,1,8,0,0,1.08239X$1,22.5*%
G01*
G04 Define Apertures*
%ADD10R,0.800000X1.200000*%
%ADD11R,1.300000X2.150000*%
%ADD12P,1.81452X8X22.5*%
%ADD13R,1.676400X1.676400*%
%ADD14R,2.123900X2.284100*%
%ADD15R,1.361200X1.114600*%
%ADD16R,1.400000X1.000000*%
%ADD17R,0.798700X0.973900*%
%ADD18R,1.164600X1.815300*%
%ADD19R,1.815300X1.164600*%
%ADD20R,0.973900X0.798700*%
%ADD21R,1.200000X0.800000*%
%ADD22R,2.150000X1.300000*%
%ADD23R,0.510000X0.400000*%
%ADD24R,1.170000X1.180000*%
%ADD25C,0.152400*%
%ADD26C,0.756400*%
D10*
X215900Y45130D03*
X228400Y45130D03*
D11*
X196900Y22180D03*
X247400Y22180D03*
D10*
X127000Y45130D03*
X139500Y45130D03*
D11*
X108000Y22180D03*
X158500Y22180D03*
D12*
X533400Y508000D03*
X508000Y25400D03*
X558800Y508000D03*
X584200Y508000D03*
X609600Y508000D03*
D13*
X635000Y508000D03*
D12*
X508000Y508000D03*
X482600Y508000D03*
X457200Y508000D03*
X416560Y508000D03*
X391160Y508000D03*
X365760Y508000D03*
X340360Y508000D03*
X314960Y508000D03*
X289560Y508000D03*
X264160Y508000D03*
X238760Y508000D03*
X533400Y25400D03*
X558800Y25400D03*
X584200Y25400D03*
X609600Y25400D03*
X635000Y25400D03*
X457200Y25400D03*
X431800Y25400D03*
X406400Y25400D03*
X381000Y25400D03*
X355600Y25400D03*
X330200Y25400D03*
X685800Y508000D03*
X711200Y508000D03*
X736600Y508000D03*
X762000Y508000D03*
X787400Y508000D03*
X812800Y508000D03*
X838200Y508000D03*
X863600Y508000D03*
X660400Y25400D03*
X685800Y25400D03*
X736600Y25400D03*
X762000Y25400D03*
X787400Y25400D03*
X812800Y25400D03*
X838200Y25400D03*
X863600Y25400D03*
X889000Y25400D03*
X914400Y25400D03*
X215900Y508000D03*
X190500Y508000D03*
X304800Y25400D03*
X279400Y25400D03*
D14*
X38100Y110541D03*
X38100Y67259D03*
D15*
X266700Y117604D03*
X266700Y85596D03*
D16*
X39800Y152400D03*
X61800Y161900D03*
X61800Y142900D03*
X128700Y152400D03*
X150700Y161900D03*
X150700Y142900D03*
X112600Y114300D03*
X90600Y104800D03*
X90600Y123800D03*
X201500Y114300D03*
X179500Y104800D03*
X179500Y123800D03*
D17*
X185952Y73660D03*
X169648Y73660D03*
X109752Y165100D03*
X93448Y165100D03*
D18*
X328141Y119380D03*
X298633Y119380D03*
D19*
X76200Y90954D03*
X76200Y61446D03*
D20*
X139700Y80748D03*
X139700Y97052D03*
X228600Y80748D03*
X228600Y97052D03*
X508000Y147852D03*
X508000Y131548D03*
X533400Y147852D03*
X533400Y131548D03*
D21*
X45130Y241300D03*
X45130Y228800D03*
X45130Y216300D03*
X45130Y203800D03*
D22*
X22180Y260300D03*
X22180Y184800D03*
D21*
X45130Y342900D03*
X45130Y330400D03*
X45130Y317900D03*
X45130Y305400D03*
D22*
X22180Y361900D03*
X22180Y286400D03*
D20*
X508000Y185952D03*
X508000Y169648D03*
X533400Y185952D03*
X533400Y169648D03*
D21*
X45130Y444500D03*
X45130Y432000D03*
X45130Y419500D03*
X45130Y407000D03*
D22*
X22180Y463500D03*
X22180Y388000D03*
D21*
X970870Y241300D03*
X970870Y253800D03*
D22*
X993820Y222300D03*
X993820Y272800D03*
D21*
X970870Y139700D03*
X970870Y152200D03*
D22*
X993820Y120700D03*
X993820Y171200D03*
D17*
X880848Y266700D03*
X897152Y266700D03*
D23*
X920650Y157400D03*
X920650Y147400D03*
X933550Y152400D03*
X920650Y259000D03*
X920650Y249000D03*
X933550Y254000D03*
D17*
X880848Y241300D03*
X897152Y241300D03*
X880848Y139700D03*
X897152Y139700D03*
X880848Y165100D03*
X897152Y165100D03*
D24*
X934720Y194920D03*
X934720Y226720D03*
D21*
X945470Y444500D03*
X945470Y457000D03*
X945470Y469500D03*
X945470Y482000D03*
D22*
X968420Y425500D03*
X968420Y501000D03*
D25*
X215900Y73660D02*
X215900Y45130D01*
D26*
X215900Y73660D03*
D25*
X127000Y73660D02*
X127000Y45130D01*
D26*
X127000Y73660D03*
D25*
X38100Y67259D02*
X38100Y38100D01*
D26*
X38100Y38100D03*
D25*
X185952Y73660D02*
X215900Y73660D01*
X116840Y165100D02*
X109752Y165100D01*
X116840Y165100D02*
X121920Y170180D01*
X121920Y172720D01*
D26*
X121920Y172720D03*
X292100Y63500D03*
D25*
X266700Y76200D02*
X266700Y85596D01*
X266700Y76200D02*
X279400Y63500D01*
X292100Y63500D01*
X76200Y50800D02*
X63500Y38100D01*
X38100Y38100D01*
X508000Y185952D02*
X508000Y203200D01*
D26*
X508000Y203200D03*
D25*
X533400Y195580D02*
X533400Y185952D01*
X533400Y195580D02*
X525780Y203200D01*
X508000Y203200D01*
X45130Y203800D02*
X45130Y216300D01*
X45130Y203800D02*
X45730Y203200D01*
X63500Y203200D01*
D26*
X63500Y203200D03*
D25*
X45130Y305400D02*
X45130Y317900D01*
X45130Y305400D02*
X45730Y304800D01*
X63500Y304800D01*
D26*
X63500Y304800D03*
D25*
X62900Y407000D02*
X45130Y407000D01*
X62900Y407000D02*
X63500Y406400D01*
D26*
X63500Y406400D03*
D25*
X838200Y241300D02*
X880848Y241300D01*
D26*
X838200Y241300D03*
D25*
X906780Y228600D02*
X911860Y233680D01*
X906780Y228600D02*
X850900Y228600D01*
X838200Y241300D01*
X920650Y147400D02*
X920570Y147320D01*
X914400Y147320D01*
X911860Y144780D01*
X911860Y132080D01*
X906780Y127000D01*
X880848Y139700D02*
X838200Y139700D01*
D26*
X838200Y139700D03*
D25*
X850900Y127000D02*
X906780Y127000D01*
X850900Y127000D02*
X838200Y139700D01*
X915570Y249000D02*
X920650Y249000D01*
X915570Y249000D02*
X911860Y245290D01*
X911860Y233680D01*
X298633Y119380D02*
X287020Y119380D01*
X281940Y114300D01*
X281940Y73660D01*
X292100Y63500D01*
X76200Y61446D02*
X76200Y50800D01*
X914600Y457000D02*
X945470Y457000D01*
X914600Y457000D02*
X914400Y457200D01*
D26*
X914400Y457200D03*
D25*
X39800Y152400D02*
X27940Y152400D01*
X25400Y154940D01*
X25400Y167640D01*
X30480Y172720D01*
X76200Y172720D01*
X88900Y185420D01*
X88900Y228600D01*
X88900Y330200D01*
X88900Y431800D01*
X27940Y152400D02*
X25400Y149860D01*
X25400Y139700D01*
X38100Y127000D01*
X38100Y110541D01*
X78080Y104800D02*
X90600Y104800D01*
X78080Y104800D02*
X63500Y119380D01*
X63500Y124460D01*
X55880Y132080D01*
X43180Y132080D01*
X38100Y127000D01*
X76200Y102920D02*
X78080Y104800D01*
X76200Y342900D02*
X45130Y342900D01*
X76200Y342900D02*
X88900Y330200D01*
X76200Y241300D02*
X45130Y241300D01*
X76200Y241300D02*
X88900Y228600D01*
X76200Y444500D02*
X45130Y444500D01*
X76200Y444500D02*
X88900Y431800D01*
X76200Y102920D02*
X76200Y90954D01*
X228400Y80548D02*
X228400Y45130D01*
X228400Y80548D02*
X228600Y80748D01*
X139700Y80748D02*
X139700Y45330D01*
X139500Y45130D01*
X179500Y104800D02*
X181000Y104800D01*
X190500Y114300D01*
X190500Y127000D01*
X203200Y139700D01*
X349250Y133350D02*
X457200Y25400D01*
X349250Y133350D02*
X342900Y139700D01*
X254000Y139700D01*
X203200Y139700D01*
X128700Y152400D02*
X128700Y166800D01*
X139700Y177800D01*
X165100Y177800D01*
X203200Y139700D01*
X266700Y127000D02*
X266700Y117604D01*
X266700Y127000D02*
X254000Y139700D01*
X342900Y139700D02*
X431800Y228600D01*
X800100Y228600D01*
X812800Y215900D01*
X812800Y127000D01*
X838200Y101600D01*
X914400Y101600D01*
X952500Y139700D01*
X970870Y139700D01*
X970870Y241300D02*
X962660Y241300D01*
X960120Y238760D01*
X960120Y185420D01*
X952500Y177800D01*
X927100Y177800D01*
X850900Y177800D01*
X812800Y215900D01*
X934720Y194920D02*
X934720Y185420D01*
X927100Y177800D01*
X342900Y119380D02*
X328141Y119380D01*
X342900Y119380D02*
X349250Y125730D01*
X349250Y133350D01*
X73000Y142900D02*
X61800Y142900D01*
X73000Y142900D02*
X76200Y139700D01*
X76200Y127000D01*
X79400Y123800D01*
X90600Y123800D01*
X93448Y165100D02*
X83820Y165100D01*
X78740Y160020D01*
X78740Y148640D01*
X73000Y142900D01*
X150700Y142900D02*
X161900Y142900D01*
X165100Y139700D01*
X165100Y127000D01*
X168300Y123800D01*
X179500Y123800D01*
X169648Y73660D02*
X162560Y73660D01*
X157480Y78740D01*
X157480Y112980D01*
X168300Y123800D01*
X228600Y106680D02*
X228600Y97052D01*
X228600Y106680D02*
X220980Y114300D01*
X201500Y114300D01*
X139700Y106680D02*
X139700Y97052D01*
X139700Y106680D02*
X132080Y114300D01*
X112600Y114300D01*
X508000Y114300D02*
X508000Y131548D01*
X508000Y114300D02*
X508000Y25400D01*
X508000Y114300D02*
X482600Y139700D01*
X482600Y165100D01*
D26*
X482600Y165100D03*
X63500Y228600D03*
D25*
X45330Y228600D01*
X45130Y228800D01*
X533400Y131548D02*
X533400Y114300D01*
X533400Y25400D01*
X63300Y330400D02*
X45130Y330400D01*
X63300Y330400D02*
X63500Y330200D01*
D26*
X63500Y330200D03*
X520700Y165100D03*
D25*
X520700Y127000D01*
X533400Y114300D01*
X508000Y147852D02*
X508000Y169648D01*
X533400Y169648D02*
X533400Y147852D01*
X76000Y432000D02*
X45130Y432000D01*
X76000Y432000D02*
X76200Y431800D01*
D26*
X76200Y431800D03*
D25*
X584200Y101600D02*
X584200Y25400D01*
D26*
X584200Y101600D03*
X76200Y419100D03*
D25*
X45530Y419100D01*
X45130Y419500D01*
D26*
X558800Y101600D03*
D25*
X558800Y25400D01*
X558800Y469900D02*
X558800Y508000D01*
X838200Y165100D02*
X880848Y165100D01*
D26*
X838200Y165100D03*
X558800Y469900D03*
D25*
X937260Y253800D02*
X970870Y253800D01*
X937260Y253800D02*
X933750Y253800D01*
X933550Y254000D01*
X934720Y236220D02*
X934720Y226720D01*
X934720Y236220D02*
X939800Y241300D01*
X939800Y251260D01*
X937260Y253800D01*
X920650Y259000D02*
X914480Y259000D01*
X906780Y266700D02*
X897152Y266700D01*
X906780Y266700D02*
X914480Y259000D01*
X906780Y251300D01*
X906780Y243308D01*
X904772Y241300D01*
X897152Y241300D01*
X584200Y469900D02*
X584200Y508000D01*
X838200Y266700D02*
X880848Y266700D01*
D26*
X838200Y266700D03*
X584200Y469900D03*
D25*
X897152Y165100D02*
X904240Y165100D01*
X911940Y157400D01*
X920650Y157400D01*
X904240Y139700D02*
X897152Y139700D01*
X904240Y139700D02*
X906780Y142240D01*
X906780Y152240D01*
X911940Y157400D01*
X933750Y152200D02*
X970870Y152200D01*
X933750Y152200D02*
X933550Y152400D01*
X945470Y444500D02*
X622300Y444500D01*
X381000Y203200D01*
D26*
X381000Y203200D03*
D25*
X609600Y495300D02*
X609600Y508000D01*
X609600Y495300D02*
X635000Y469900D01*
X945070Y469900D01*
X945470Y469500D01*
X945470Y482000D02*
X648300Y482000D01*
X635000Y495300D01*
X635000Y508000D01*
M02*
