G04 EAGLE Gerber RS-274X export*
G75*
%MOMM*%
%FSLAX34Y34*%
%LPD*%
%INBottom Copper*%
%IPPOS*%
%AMOC8*
5,1,8,0,0,1.08239X$1,22.5*%
G01*
G04 Define Apertures*
%ADD10P,1.81452X8X22.5*%
%ADD11R,1.676400X1.676400*%
%ADD12C,0.756400*%
%ADD13C,0.152400*%
G36*
X270993Y11490D02*
X271244Y11662D01*
X271407Y11917D01*
X271458Y12216D01*
X271388Y12511D01*
X271235Y12731D01*
X264668Y19298D01*
X264668Y31502D01*
X273298Y40132D01*
X285502Y40132D01*
X291561Y34073D01*
X291814Y33906D01*
X292112Y33850D01*
X292408Y33915D01*
X292639Y34073D01*
X298698Y40132D01*
X310902Y40132D01*
X316961Y34073D01*
X317214Y33906D01*
X317512Y33850D01*
X317808Y33915D01*
X318039Y34073D01*
X324098Y40132D01*
X336302Y40132D01*
X342361Y34073D01*
X342614Y33906D01*
X342912Y33850D01*
X343208Y33915D01*
X343439Y34073D01*
X349498Y40132D01*
X361702Y40132D01*
X367761Y34073D01*
X368014Y33906D01*
X368312Y33850D01*
X368608Y33915D01*
X368839Y34073D01*
X373665Y38899D01*
X373832Y39152D01*
X373888Y39438D01*
X373888Y195668D01*
X373828Y195965D01*
X373665Y196206D01*
X372411Y197461D01*
X370868Y201185D01*
X370868Y205215D01*
X372411Y208939D01*
X375261Y211790D01*
X378985Y213332D01*
X383015Y213332D01*
X386739Y211790D01*
X389590Y208939D01*
X391132Y205215D01*
X391132Y201185D01*
X389590Y197461D01*
X388335Y196206D01*
X388168Y195954D01*
X388112Y195668D01*
X388112Y39438D01*
X388172Y39141D01*
X388335Y38899D01*
X395855Y31379D01*
X396108Y31211D01*
X396406Y31156D01*
X396702Y31221D01*
X396933Y31379D01*
X401876Y36322D01*
X405638Y36322D01*
X405638Y14478D01*
X401876Y14478D01*
X396933Y19421D01*
X396680Y19589D01*
X396382Y19644D01*
X396086Y19579D01*
X395855Y19421D01*
X389165Y12731D01*
X388998Y12478D01*
X388942Y12180D01*
X389007Y11884D01*
X389182Y11636D01*
X389441Y11477D01*
X389704Y11430D01*
X448496Y11430D01*
X448793Y11490D01*
X449044Y11662D01*
X449207Y11917D01*
X449258Y12216D01*
X449188Y12511D01*
X449035Y12731D01*
X442345Y19421D01*
X442092Y19589D01*
X441794Y19644D01*
X441498Y19579D01*
X441267Y19421D01*
X436324Y14478D01*
X432562Y14478D01*
X432562Y36322D01*
X436324Y36322D01*
X441267Y31379D01*
X441520Y31211D01*
X441818Y31156D01*
X442114Y31221D01*
X442345Y31379D01*
X451098Y40132D01*
X463302Y40132D01*
X471932Y31502D01*
X471932Y19298D01*
X465365Y12731D01*
X465198Y12478D01*
X465142Y12180D01*
X465207Y11884D01*
X465382Y11636D01*
X465641Y11477D01*
X465904Y11430D01*
X499296Y11430D01*
X499593Y11490D01*
X499844Y11662D01*
X500007Y11917D01*
X500058Y12216D01*
X499988Y12511D01*
X499835Y12731D01*
X493268Y19298D01*
X493268Y31502D01*
X501898Y40132D01*
X514102Y40132D01*
X520161Y34073D01*
X520414Y33906D01*
X520712Y33850D01*
X521008Y33915D01*
X521239Y34073D01*
X527298Y40132D01*
X539502Y40132D01*
X545561Y34073D01*
X545814Y33906D01*
X546112Y33850D01*
X546408Y33915D01*
X546639Y34073D01*
X552698Y40132D01*
X564902Y40132D01*
X570961Y34073D01*
X571214Y33906D01*
X571512Y33850D01*
X571808Y33915D01*
X572039Y34073D01*
X578098Y40132D01*
X590302Y40132D01*
X596361Y34073D01*
X596614Y33906D01*
X596912Y33850D01*
X597208Y33915D01*
X597439Y34073D01*
X603498Y40132D01*
X615702Y40132D01*
X621761Y34073D01*
X622014Y33906D01*
X622312Y33850D01*
X622608Y33915D01*
X622839Y34073D01*
X628898Y40132D01*
X641102Y40132D01*
X647161Y34073D01*
X647414Y33906D01*
X647712Y33850D01*
X648008Y33915D01*
X648239Y34073D01*
X654298Y40132D01*
X666502Y40132D01*
X672561Y34073D01*
X672814Y33906D01*
X673112Y33850D01*
X673408Y33915D01*
X673639Y34073D01*
X679698Y40132D01*
X691902Y40132D01*
X700532Y31502D01*
X700532Y19298D01*
X693965Y12731D01*
X693798Y12478D01*
X693742Y12180D01*
X693807Y11884D01*
X693982Y11636D01*
X694241Y11477D01*
X694504Y11430D01*
X727896Y11430D01*
X728193Y11490D01*
X728444Y11662D01*
X728607Y11917D01*
X728658Y12216D01*
X728588Y12511D01*
X728435Y12731D01*
X721868Y19298D01*
X721868Y31502D01*
X730498Y40132D01*
X742702Y40132D01*
X748761Y34073D01*
X749014Y33906D01*
X749312Y33850D01*
X749608Y33915D01*
X749839Y34073D01*
X755898Y40132D01*
X768102Y40132D01*
X774161Y34073D01*
X774414Y33906D01*
X774712Y33850D01*
X775008Y33915D01*
X775239Y34073D01*
X781298Y40132D01*
X793502Y40132D01*
X799561Y34073D01*
X799814Y33906D01*
X800112Y33850D01*
X800408Y33915D01*
X800639Y34073D01*
X806698Y40132D01*
X818902Y40132D01*
X824961Y34073D01*
X825214Y33906D01*
X825512Y33850D01*
X825808Y33915D01*
X826039Y34073D01*
X832098Y40132D01*
X844302Y40132D01*
X850361Y34073D01*
X850614Y33906D01*
X850912Y33850D01*
X851208Y33915D01*
X851439Y34073D01*
X857498Y40132D01*
X869702Y40132D01*
X875761Y34073D01*
X876014Y33906D01*
X876312Y33850D01*
X876608Y33915D01*
X876839Y34073D01*
X882898Y40132D01*
X895102Y40132D01*
X901161Y34073D01*
X901414Y33906D01*
X901712Y33850D01*
X902008Y33915D01*
X902239Y34073D01*
X908298Y40132D01*
X920502Y40132D01*
X929132Y31502D01*
X929132Y19298D01*
X922565Y12731D01*
X922398Y12478D01*
X922342Y12180D01*
X922407Y11884D01*
X922582Y11636D01*
X922841Y11477D01*
X923104Y11430D01*
X978408Y11430D01*
X978705Y11490D01*
X978955Y11662D01*
X979119Y11917D01*
X979170Y12192D01*
X979170Y27674D01*
X980910Y31875D01*
X1004347Y55311D01*
X1004514Y55564D01*
X1004570Y55850D01*
X1004570Y373410D01*
X1004510Y373707D01*
X1004347Y373949D01*
X980910Y397385D01*
X979170Y401586D01*
X979170Y513110D01*
X979110Y513407D01*
X978947Y513649D01*
X970849Y521747D01*
X970596Y521914D01*
X970310Y521970D01*
X872304Y521970D01*
X872007Y521910D01*
X871756Y521738D01*
X871593Y521483D01*
X871542Y521184D01*
X871612Y520889D01*
X871765Y520669D01*
X878332Y514102D01*
X878332Y501898D01*
X869702Y493268D01*
X857498Y493268D01*
X851439Y499327D01*
X851186Y499495D01*
X850888Y499550D01*
X850592Y499485D01*
X850361Y499327D01*
X844302Y493268D01*
X832098Y493268D01*
X826039Y499327D01*
X825786Y499495D01*
X825488Y499550D01*
X825192Y499485D01*
X824961Y499327D01*
X818902Y493268D01*
X806698Y493268D01*
X800639Y499327D01*
X800386Y499495D01*
X800088Y499550D01*
X799792Y499485D01*
X799561Y499327D01*
X793502Y493268D01*
X781298Y493268D01*
X775239Y499327D01*
X774986Y499495D01*
X774688Y499550D01*
X774392Y499485D01*
X774161Y499327D01*
X768102Y493268D01*
X755898Y493268D01*
X749839Y499327D01*
X749586Y499495D01*
X749288Y499550D01*
X748992Y499485D01*
X748761Y499327D01*
X742702Y493268D01*
X730498Y493268D01*
X724439Y499327D01*
X724186Y499495D01*
X723888Y499550D01*
X723592Y499485D01*
X723361Y499327D01*
X717302Y493268D01*
X705098Y493268D01*
X699039Y499327D01*
X698786Y499495D01*
X698488Y499550D01*
X698192Y499485D01*
X697961Y499327D01*
X691902Y493268D01*
X679698Y493268D01*
X671068Y501898D01*
X671068Y514102D01*
X677635Y520669D01*
X677803Y520922D01*
X677858Y521220D01*
X677793Y521516D01*
X677618Y521764D01*
X677360Y521923D01*
X677096Y521970D01*
X648614Y521970D01*
X648317Y521910D01*
X648067Y521738D01*
X647903Y521483D01*
X647852Y521184D01*
X647922Y520889D01*
X648075Y520669D01*
X648765Y519979D01*
X649732Y517645D01*
X649732Y498355D01*
X648765Y496021D01*
X646979Y494235D01*
X644645Y493268D01*
X625355Y493268D01*
X623021Y494235D01*
X621235Y496021D01*
X620857Y496933D01*
X620688Y497184D01*
X620433Y497350D01*
X620135Y497403D01*
X619839Y497336D01*
X619614Y497180D01*
X615702Y493268D01*
X603498Y493268D01*
X597439Y499327D01*
X597186Y499495D01*
X596888Y499550D01*
X596592Y499485D01*
X596361Y499327D01*
X590302Y493268D01*
X578098Y493268D01*
X572039Y499327D01*
X571786Y499495D01*
X571488Y499550D01*
X571192Y499485D01*
X570961Y499327D01*
X564902Y493268D01*
X552698Y493268D01*
X546639Y499327D01*
X546386Y499495D01*
X546088Y499550D01*
X545792Y499485D01*
X545561Y499327D01*
X539502Y493268D01*
X527298Y493268D01*
X521239Y499327D01*
X520986Y499495D01*
X520688Y499550D01*
X520392Y499485D01*
X520161Y499327D01*
X514102Y493268D01*
X501898Y493268D01*
X495839Y499327D01*
X495586Y499495D01*
X495288Y499550D01*
X494992Y499485D01*
X494761Y499327D01*
X488702Y493268D01*
X476498Y493268D01*
X470439Y499327D01*
X470186Y499495D01*
X469888Y499550D01*
X469592Y499485D01*
X469361Y499327D01*
X463302Y493268D01*
X451098Y493268D01*
X442468Y501898D01*
X442468Y514102D01*
X449035Y520669D01*
X449203Y520922D01*
X449258Y521220D01*
X449193Y521516D01*
X449018Y521764D01*
X448760Y521923D01*
X448496Y521970D01*
X425264Y521970D01*
X424967Y521910D01*
X424716Y521738D01*
X424553Y521483D01*
X424502Y521184D01*
X424572Y520889D01*
X424725Y520669D01*
X431292Y514102D01*
X431292Y501898D01*
X422662Y493268D01*
X410458Y493268D01*
X404399Y499327D01*
X404146Y499495D01*
X403848Y499550D01*
X403552Y499485D01*
X403321Y499327D01*
X397262Y493268D01*
X385058Y493268D01*
X378999Y499327D01*
X378746Y499495D01*
X378448Y499550D01*
X378152Y499485D01*
X377921Y499327D01*
X371862Y493268D01*
X359658Y493268D01*
X353599Y499327D01*
X353346Y499495D01*
X353048Y499550D01*
X352752Y499485D01*
X352521Y499327D01*
X346462Y493268D01*
X334258Y493268D01*
X328199Y499327D01*
X327946Y499495D01*
X327648Y499550D01*
X327352Y499485D01*
X327121Y499327D01*
X321062Y493268D01*
X308858Y493268D01*
X302799Y499327D01*
X302546Y499495D01*
X302248Y499550D01*
X301952Y499485D01*
X301721Y499327D01*
X295662Y493268D01*
X283458Y493268D01*
X274705Y502021D01*
X274452Y502189D01*
X274154Y502244D01*
X273858Y502179D01*
X273627Y502021D01*
X268684Y497078D01*
X264922Y497078D01*
X264922Y518922D01*
X268684Y518922D01*
X273627Y513979D01*
X273880Y513811D01*
X274178Y513756D01*
X274474Y513821D01*
X274705Y513979D01*
X281395Y520669D01*
X281563Y520922D01*
X281618Y521220D01*
X281553Y521516D01*
X281378Y521764D01*
X281120Y521923D01*
X280856Y521970D01*
X247464Y521970D01*
X247167Y521910D01*
X246916Y521738D01*
X246753Y521483D01*
X246702Y521184D01*
X246772Y520889D01*
X246925Y520669D01*
X253615Y513979D01*
X253868Y513811D01*
X254166Y513756D01*
X254462Y513821D01*
X254693Y513979D01*
X259636Y518922D01*
X263398Y518922D01*
X263398Y497078D01*
X259636Y497078D01*
X254693Y502021D01*
X254440Y502189D01*
X254142Y502244D01*
X253846Y502179D01*
X253615Y502021D01*
X244862Y493268D01*
X232658Y493268D01*
X227869Y498057D01*
X227616Y498225D01*
X227318Y498280D01*
X227022Y498215D01*
X226791Y498057D01*
X222002Y493268D01*
X209798Y493268D01*
X203739Y499327D01*
X203486Y499495D01*
X203188Y499550D01*
X202892Y499485D01*
X202661Y499327D01*
X196602Y493268D01*
X184398Y493268D01*
X175768Y501898D01*
X175768Y514102D01*
X182335Y520669D01*
X182503Y520922D01*
X182558Y521220D01*
X182493Y521516D01*
X182318Y521764D01*
X182060Y521923D01*
X181796Y521970D01*
X12192Y521970D01*
X11895Y521910D01*
X11645Y521738D01*
X11481Y521483D01*
X11430Y521208D01*
X11430Y12192D01*
X11490Y11895D01*
X11662Y11645D01*
X11917Y11481D01*
X12192Y11430D01*
X270696Y11430D01*
X270993Y11490D01*
G37*
%LPC*%
G36*
X836185Y256568D02*
X832461Y258111D01*
X831206Y259365D01*
X830954Y259532D01*
X830668Y259588D01*
X785985Y259588D01*
X783371Y260671D01*
X584497Y459545D01*
X584244Y459712D01*
X583959Y459768D01*
X582185Y459768D01*
X578461Y461311D01*
X575611Y464161D01*
X574068Y467885D01*
X574068Y471915D01*
X575611Y475639D01*
X578461Y478490D01*
X582185Y480032D01*
X586215Y480032D01*
X589939Y478490D01*
X592790Y475639D01*
X594332Y471915D01*
X594332Y470142D01*
X594392Y469844D01*
X594555Y469603D01*
X790123Y274035D01*
X790376Y273868D01*
X790662Y273812D01*
X830668Y273812D01*
X830965Y273872D01*
X831206Y274035D01*
X832461Y275290D01*
X836185Y276832D01*
X840215Y276832D01*
X843939Y275290D01*
X846790Y272439D01*
X848332Y268715D01*
X848332Y264685D01*
X846790Y260961D01*
X843939Y258111D01*
X840215Y256568D01*
X836185Y256568D01*
G37*
G36*
X836185Y154968D02*
X832461Y156511D01*
X829611Y159361D01*
X828068Y163085D01*
X828068Y164859D01*
X828008Y165156D01*
X827845Y165397D01*
X552771Y440471D01*
X551688Y443085D01*
X551688Y462368D01*
X551628Y462665D01*
X551465Y462906D01*
X550211Y464161D01*
X548668Y467885D01*
X548668Y471915D01*
X550211Y475639D01*
X553061Y478490D01*
X556785Y480032D01*
X560815Y480032D01*
X564539Y478490D01*
X567390Y475639D01*
X568932Y471915D01*
X568932Y467885D01*
X567390Y464161D01*
X566135Y462906D01*
X565968Y462654D01*
X565912Y462368D01*
X565912Y447762D01*
X565972Y447464D01*
X566135Y447223D01*
X837903Y175455D01*
X838156Y175288D01*
X838442Y175232D01*
X840215Y175232D01*
X843939Y173690D01*
X846790Y170839D01*
X848332Y167115D01*
X848332Y163085D01*
X846790Y159361D01*
X843939Y156511D01*
X840215Y154968D01*
X836185Y154968D01*
G37*
G36*
X556785Y91468D02*
X553061Y93011D01*
X550211Y95861D01*
X548668Y99585D01*
X548668Y103615D01*
X550211Y107339D01*
X551465Y108594D01*
X551632Y108847D01*
X551688Y109132D01*
X551688Y174539D01*
X551628Y174836D01*
X551465Y175077D01*
X314777Y411765D01*
X314524Y411932D01*
X314239Y411988D01*
X83732Y411988D01*
X83435Y411928D01*
X83194Y411765D01*
X81939Y410511D01*
X78215Y408968D01*
X74185Y408968D01*
X70461Y410511D01*
X67611Y413361D01*
X66068Y417085D01*
X66068Y421115D01*
X67611Y424839D01*
X67682Y424911D01*
X67850Y425164D01*
X67905Y425462D01*
X67840Y425758D01*
X67682Y425989D01*
X67611Y426061D01*
X66068Y429785D01*
X66068Y433815D01*
X67611Y437539D01*
X70461Y440390D01*
X74185Y441932D01*
X78215Y441932D01*
X81939Y440390D01*
X83194Y439135D01*
X83447Y438968D01*
X83732Y438912D01*
X344315Y438912D01*
X346929Y437829D01*
X590229Y194529D01*
X591312Y191915D01*
X591312Y109132D01*
X591372Y108835D01*
X591535Y108594D01*
X592790Y107339D01*
X594332Y103615D01*
X594332Y99585D01*
X592790Y95861D01*
X589939Y93011D01*
X586215Y91468D01*
X582185Y91468D01*
X578461Y93011D01*
X575611Y95861D01*
X574068Y99585D01*
X574068Y103615D01*
X575611Y107339D01*
X576865Y108594D01*
X577032Y108847D01*
X577088Y109132D01*
X577088Y187239D01*
X577028Y187536D01*
X576865Y187777D01*
X340177Y424465D01*
X339924Y424632D01*
X339639Y424688D01*
X323810Y424688D01*
X323512Y424628D01*
X323262Y424456D01*
X323099Y424201D01*
X323048Y423902D01*
X323118Y423607D01*
X323271Y423387D01*
X564829Y181829D01*
X565912Y179215D01*
X565912Y109132D01*
X565972Y108835D01*
X566135Y108594D01*
X567390Y107339D01*
X568932Y103615D01*
X568932Y99585D01*
X567390Y95861D01*
X564539Y93011D01*
X560815Y91468D01*
X556785Y91468D01*
G37*
G36*
X518685Y154968D02*
X514961Y156511D01*
X512111Y159361D01*
X510568Y163085D01*
X510568Y164859D01*
X510508Y165156D01*
X510345Y165397D01*
X352877Y322865D01*
X352624Y323032D01*
X352339Y323088D01*
X71032Y323088D01*
X70735Y323028D01*
X70494Y322865D01*
X69239Y321611D01*
X65515Y320068D01*
X61485Y320068D01*
X57761Y321611D01*
X54911Y324461D01*
X53368Y328185D01*
X53368Y332215D01*
X54911Y335939D01*
X57761Y338790D01*
X61485Y340332D01*
X65515Y340332D01*
X69239Y338790D01*
X70494Y337535D01*
X70747Y337368D01*
X71032Y337312D01*
X357015Y337312D01*
X359629Y336229D01*
X520403Y175455D01*
X520656Y175288D01*
X520942Y175232D01*
X522715Y175232D01*
X526439Y173690D01*
X529290Y170839D01*
X530832Y167115D01*
X530832Y163085D01*
X529290Y159361D01*
X526439Y156511D01*
X522715Y154968D01*
X518685Y154968D01*
G37*
G36*
X480585Y154968D02*
X476861Y156511D01*
X474011Y159361D01*
X472468Y163085D01*
X472468Y164859D01*
X472408Y165156D01*
X472245Y165397D01*
X416377Y221265D01*
X416124Y221432D01*
X415839Y221488D01*
X71032Y221488D01*
X70735Y221428D01*
X70494Y221265D01*
X69239Y220011D01*
X65515Y218468D01*
X61485Y218468D01*
X57761Y220011D01*
X54911Y222861D01*
X53368Y226585D01*
X53368Y230615D01*
X54911Y234339D01*
X57761Y237190D01*
X61485Y238732D01*
X65515Y238732D01*
X69239Y237190D01*
X70494Y235935D01*
X70747Y235768D01*
X71032Y235712D01*
X420515Y235712D01*
X423129Y234629D01*
X482303Y175455D01*
X482556Y175288D01*
X482842Y175232D01*
X484615Y175232D01*
X488339Y173690D01*
X491190Y170839D01*
X492732Y167115D01*
X492732Y163085D01*
X491190Y159361D01*
X488339Y156511D01*
X484615Y154968D01*
X480585Y154968D01*
G37*
G36*
X420878Y26162D02*
X420878Y29924D01*
X427276Y36322D01*
X431038Y36322D01*
X431038Y26162D01*
X420878Y26162D01*
G37*
G36*
X407162Y26162D02*
X407162Y36322D01*
X410924Y36322D01*
X417322Y29924D01*
X417322Y26162D01*
X407162Y26162D01*
G37*
G36*
X407162Y14478D02*
X407162Y24638D01*
X417322Y24638D01*
X417322Y20876D01*
X410924Y14478D01*
X407162Y14478D01*
G37*
G36*
X427276Y14478D02*
X420878Y20876D01*
X420878Y24638D01*
X431038Y24638D01*
X431038Y14478D01*
X427276Y14478D01*
G37*
%LPD*%
D10*
X533400Y508000D03*
X508000Y25400D03*
X558800Y508000D03*
X584200Y508000D03*
X609600Y508000D03*
D11*
X635000Y508000D03*
D10*
X508000Y508000D03*
X482600Y508000D03*
X457200Y508000D03*
X416560Y508000D03*
X391160Y508000D03*
X365760Y508000D03*
X340360Y508000D03*
X314960Y508000D03*
X289560Y508000D03*
X264160Y508000D03*
X238760Y508000D03*
X533400Y25400D03*
X558800Y25400D03*
X584200Y25400D03*
X609600Y25400D03*
X635000Y25400D03*
X457200Y25400D03*
X431800Y25400D03*
X406400Y25400D03*
X381000Y25400D03*
X355600Y25400D03*
X330200Y25400D03*
X685800Y508000D03*
X711200Y508000D03*
X736600Y508000D03*
X762000Y508000D03*
X787400Y508000D03*
X812800Y508000D03*
X838200Y508000D03*
X863600Y508000D03*
X660400Y25400D03*
X685800Y25400D03*
X736600Y25400D03*
X762000Y25400D03*
X787400Y25400D03*
X812800Y25400D03*
X838200Y25400D03*
X863600Y25400D03*
X889000Y25400D03*
X914400Y25400D03*
X215900Y508000D03*
X190500Y508000D03*
X304800Y25400D03*
X279400Y25400D03*
D12*
X215900Y73660D03*
X127000Y73660D03*
X38100Y38100D03*
X121920Y172720D03*
X292100Y63500D03*
X508000Y203200D03*
X63500Y203200D03*
X63500Y304800D03*
X63500Y406400D03*
X838200Y241300D03*
X838200Y139700D03*
X914400Y457200D03*
X482600Y165100D03*
D13*
X419100Y228600D01*
X63500Y228600D01*
D12*
X63500Y228600D03*
X63500Y330200D03*
D13*
X355600Y330200D01*
X520700Y165100D01*
D12*
X520700Y165100D03*
X76200Y431800D03*
D13*
X342900Y431800D01*
X584200Y190500D01*
X584200Y101600D01*
D12*
X584200Y101600D03*
D13*
X317500Y419100D02*
X76200Y419100D01*
D12*
X76200Y419100D03*
D13*
X317500Y419100D02*
X558800Y177800D01*
X558800Y101600D01*
D12*
X558800Y101600D03*
X838200Y165100D03*
D13*
X558800Y444500D01*
X558800Y469900D01*
D12*
X558800Y469900D03*
X838200Y266700D03*
D13*
X787400Y266700D01*
X584200Y469900D01*
D12*
X584200Y469900D03*
X381000Y203200D03*
D13*
X381000Y25400D01*
M02*
