M48
;GenerationSoftware,Autodesk,EAGLE,9.7.0*%
;CreationDate,2022-04-01T04:16:51Z*%
FMAT,2
ICI,OFF
METRIC,TZ,000.000
T2C0.350
T1C1.000
%
G90
M71
T1
X34036Y50800
X30480Y2540
X19050Y50800
X21590Y50800
X91440Y2540
X88900Y2540
X86360Y2540
X83820Y2540
X81280Y2540
X78740Y2540
X76200Y2540
X73660Y2540
X68580Y2540
X66040Y2540
X86360Y50800
X83820Y50800
X81280Y50800
X78740Y50800
X76200Y50800
X73660Y50800
X71120Y50800
X68580Y50800
X33020Y2540
X35560Y2540
X38100Y2540
X53340Y50800
X50800Y2540
X55880Y50800
X58420Y50800
X60960Y50800
X63500Y50800
X50800Y50800
X48260Y50800
X45720Y50800
X41656Y50800
X39116Y50800
X36576Y50800
X27940Y2540
X31496Y50800
X28956Y50800
X26416Y50800
X23876Y50800
X53340Y2540
X55880Y2540
X58420Y2540
X60960Y2540
X63500Y2540
X45720Y2540
X43180Y2540
X40640Y2540
T2
X38100Y20320
X58420Y46990
X83820Y26670
X55880Y46990
X83820Y16510
X55880Y10160
X7620Y41910
X58420Y10160
X7620Y43180
X52070Y16510
X6350Y33020
X6350Y22860
X48260Y16510
X91440Y45720
X83820Y13970
X83820Y24130
X6350Y40640
X6350Y30480
X6350Y20320
X50800Y20320
X29210Y6350
X12192Y17272
X3810Y3810
X12700Y7366
X21590Y7366
M30