G04 EAGLE Gerber RS-274X export*
G75*
%MOMM*%
%FSLAX34Y34*%
%LPD*%
%INSoldermask Top*%
%IPPOS*%
%AMOC8*
5,1,8,0,0,1.08239X$1,22.5*%
G01*
G04 Define Apertures*
%ADD10R,1.003200X1.403200*%
%ADD11R,1.503200X2.353200*%
%ADD12P,2.03446X8X22.5*%
%ADD13R,1.879600X1.879600*%
%ADD14R,2.327100X2.487300*%
%ADD15R,1.564400X1.317800*%
%ADD16R,1.603200X1.203200*%
%ADD17R,1.001900X1.177100*%
%ADD18R,1.367800X2.018500*%
%ADD19R,2.018500X1.367800*%
%ADD20R,1.177100X1.001900*%
%ADD21R,1.403200X1.003200*%
%ADD22R,2.353200X1.503200*%
%ADD23R,0.713200X0.603200*%
%ADD24R,1.373200X1.383200*%
%ADD25C,0.959600*%
D10*
X215900Y45130D03*
X228400Y45130D03*
D11*
X196900Y22180D03*
X247400Y22180D03*
D10*
X127000Y45130D03*
X139500Y45130D03*
D11*
X108000Y22180D03*
X158500Y22180D03*
D12*
X533400Y508000D03*
X508000Y25400D03*
X558800Y508000D03*
X584200Y508000D03*
X609600Y508000D03*
D13*
X635000Y508000D03*
D12*
X508000Y508000D03*
X482600Y508000D03*
X457200Y508000D03*
X416560Y508000D03*
X391160Y508000D03*
X365760Y508000D03*
X340360Y508000D03*
X314960Y508000D03*
X289560Y508000D03*
X264160Y508000D03*
X238760Y508000D03*
X533400Y25400D03*
X558800Y25400D03*
X584200Y25400D03*
X609600Y25400D03*
X635000Y25400D03*
X457200Y25400D03*
X431800Y25400D03*
X406400Y25400D03*
X381000Y25400D03*
X355600Y25400D03*
X330200Y25400D03*
X685800Y508000D03*
X711200Y508000D03*
X736600Y508000D03*
X762000Y508000D03*
X787400Y508000D03*
X812800Y508000D03*
X838200Y508000D03*
X863600Y508000D03*
X660400Y25400D03*
X685800Y25400D03*
X736600Y25400D03*
X762000Y25400D03*
X787400Y25400D03*
X812800Y25400D03*
X838200Y25400D03*
X863600Y25400D03*
X889000Y25400D03*
X914400Y25400D03*
X215900Y508000D03*
X190500Y508000D03*
X304800Y25400D03*
X279400Y25400D03*
D14*
X38100Y110541D03*
X38100Y67259D03*
D15*
X266700Y117604D03*
X266700Y85596D03*
D16*
X39800Y152400D03*
X61800Y161900D03*
X61800Y142900D03*
X128700Y152400D03*
X150700Y161900D03*
X150700Y142900D03*
X112600Y114300D03*
X90600Y104800D03*
X90600Y123800D03*
X201500Y114300D03*
X179500Y104800D03*
X179500Y123800D03*
D17*
X185952Y73660D03*
X169648Y73660D03*
X109752Y165100D03*
X93448Y165100D03*
D18*
X328141Y119380D03*
X298633Y119380D03*
D19*
X76200Y90954D03*
X76200Y61446D03*
D20*
X139700Y80748D03*
X139700Y97052D03*
X228600Y80748D03*
X228600Y97052D03*
X508000Y147852D03*
X508000Y131548D03*
X533400Y147852D03*
X533400Y131548D03*
D21*
X45130Y241300D03*
X45130Y228800D03*
X45130Y216300D03*
X45130Y203800D03*
D22*
X22180Y260300D03*
X22180Y184800D03*
D21*
X45130Y342900D03*
X45130Y330400D03*
X45130Y317900D03*
X45130Y305400D03*
D22*
X22180Y361900D03*
X22180Y286400D03*
D20*
X508000Y185952D03*
X508000Y169648D03*
X533400Y185952D03*
X533400Y169648D03*
D21*
X45130Y444500D03*
X45130Y432000D03*
X45130Y419500D03*
X45130Y407000D03*
D22*
X22180Y463500D03*
X22180Y388000D03*
D21*
X970870Y241300D03*
X970870Y253800D03*
D22*
X993820Y222300D03*
X993820Y272800D03*
D21*
X970870Y139700D03*
X970870Y152200D03*
D22*
X993820Y120700D03*
X993820Y171200D03*
D17*
X880848Y266700D03*
X897152Y266700D03*
D23*
X920650Y157400D03*
X920650Y147400D03*
X933550Y152400D03*
X920650Y259000D03*
X920650Y249000D03*
X933550Y254000D03*
D17*
X880848Y241300D03*
X897152Y241300D03*
X880848Y139700D03*
X897152Y139700D03*
X880848Y165100D03*
X897152Y165100D03*
D24*
X934720Y194920D03*
X934720Y226720D03*
D21*
X945470Y444500D03*
X945470Y457000D03*
X945470Y469500D03*
X945470Y482000D03*
D22*
X968420Y425500D03*
X968420Y501000D03*
D25*
X215900Y73660D03*
X127000Y73660D03*
X38100Y38100D03*
X121920Y172720D03*
X292100Y63500D03*
X508000Y203200D03*
X63500Y203200D03*
X63500Y304800D03*
X63500Y406400D03*
X838200Y241300D03*
X838200Y139700D03*
X914400Y457200D03*
X482600Y165100D03*
X63500Y228600D03*
X63500Y330200D03*
X520700Y165100D03*
X76200Y431800D03*
X584200Y101600D03*
X76200Y419100D03*
X558800Y101600D03*
X838200Y165100D03*
X558800Y469900D03*
X838200Y266700D03*
X584200Y469900D03*
X381000Y203200D03*
M02*
