G04 EAGLE Gerber RS-274X export*
G75*
%MOMM*%
%FSLAX34Y34*%
%LPD*%
%INTop Copper*%
%IPPOS*%
%AMOC8*
5,1,8,0,0,1.08239X$1,22.5*%
G01*
G04 Define Apertures*
%ADD10P,1.81452X8X22.5*%
%ADD11R,1.676400X1.676400*%
%ADD12R,2.123900X2.284100*%
%ADD13R,1.361200X1.114600*%
%ADD14R,1.400000X1.000000*%
%ADD15R,0.798700X0.973900*%
%ADD16R,0.973900X0.798700*%
%ADD17R,0.800000X1.200000*%
%ADD18R,1.300000X2.150000*%
%ADD19R,1.200000X0.800000*%
%ADD20R,2.150000X1.300000*%
%ADD21R,1.815300X1.164600*%
%ADD22R,1.164600X1.815300*%
%ADD23C,0.756400*%
%ADD24C,0.152400*%
D10*
X533400Y508000D03*
X508000Y25400D03*
X558800Y508000D03*
X584200Y508000D03*
X609600Y508000D03*
D11*
X635000Y508000D03*
D10*
X508000Y508000D03*
X482600Y508000D03*
X457200Y508000D03*
X416560Y508000D03*
X391160Y508000D03*
X365760Y508000D03*
X340360Y508000D03*
X314960Y508000D03*
X289560Y508000D03*
X264160Y508000D03*
X238760Y508000D03*
X533400Y25400D03*
X558800Y25400D03*
X584200Y25400D03*
X609600Y25400D03*
X635000Y25400D03*
X457200Y25400D03*
X431800Y25400D03*
X406400Y25400D03*
X381000Y25400D03*
X355600Y25400D03*
X330200Y25400D03*
X685800Y508000D03*
X711200Y508000D03*
X736600Y508000D03*
X762000Y508000D03*
X787400Y508000D03*
X812800Y508000D03*
X838200Y508000D03*
X863600Y508000D03*
X660400Y25400D03*
X685800Y25400D03*
X736600Y25400D03*
X762000Y25400D03*
X787400Y25400D03*
X812800Y25400D03*
X838200Y25400D03*
X863600Y25400D03*
X889000Y25400D03*
X914400Y25400D03*
X215900Y508000D03*
X190500Y508000D03*
X304800Y25400D03*
X279400Y25400D03*
D12*
X38100Y110541D03*
X38100Y67259D03*
D13*
X266700Y117604D03*
X266700Y85596D03*
D14*
X39800Y152400D03*
X61800Y161900D03*
X61800Y142900D03*
X128700Y152400D03*
X150700Y161900D03*
X150700Y142900D03*
D15*
X185952Y73660D03*
X169648Y73660D03*
X109752Y165100D03*
X93448Y165100D03*
D16*
X139700Y80748D03*
X139700Y97052D03*
X228600Y80748D03*
X228600Y97052D03*
D17*
X215900Y45130D03*
X228400Y45130D03*
D18*
X196900Y22180D03*
X247400Y22180D03*
D17*
X127000Y45130D03*
X139500Y45130D03*
D18*
X108000Y22180D03*
X158500Y22180D03*
D19*
X45130Y372170D03*
X45130Y359670D03*
X45130Y347170D03*
X45130Y334670D03*
X45130Y322170D03*
X45130Y309670D03*
X45130Y297170D03*
X45130Y284670D03*
D20*
X22180Y391170D03*
X22180Y265670D03*
D16*
X508000Y118848D03*
X508000Y135152D03*
D15*
X554252Y101600D03*
X537948Y101600D03*
D19*
X45130Y482600D03*
X45130Y470100D03*
X45130Y457600D03*
X45130Y445100D03*
D20*
X22180Y501600D03*
X22180Y426100D03*
D16*
X546100Y169648D03*
X546100Y185952D03*
X546100Y131548D03*
X546100Y147852D03*
D21*
X76200Y90954D03*
X76200Y61446D03*
D22*
X334794Y119380D03*
X305286Y119380D03*
D14*
X112600Y114300D03*
X90600Y104800D03*
X90600Y123800D03*
X201500Y114300D03*
X179500Y104800D03*
X179500Y123800D03*
D23*
X215900Y73660D03*
D24*
X38100Y67259D02*
X38100Y38100D01*
D23*
X38100Y38100D03*
D24*
X185952Y73660D02*
X215900Y73660D01*
X116840Y165100D02*
X109752Y165100D01*
X116840Y165100D02*
X121920Y170180D01*
X121920Y172720D01*
D23*
X121920Y172720D03*
X287020Y63500D03*
D24*
X266700Y76200D02*
X266700Y85596D01*
X266700Y76200D02*
X279400Y63500D01*
X287020Y63500D01*
X76200Y50800D02*
X63500Y38100D01*
X38100Y38100D01*
X215900Y45130D02*
X215900Y73660D01*
X127000Y55880D02*
X127000Y45130D01*
X127000Y55880D02*
X121920Y60960D01*
X96520Y60960D01*
X86360Y50800D01*
X76200Y50800D01*
X56080Y470100D02*
X45130Y470100D01*
X56080Y470100D02*
X60960Y474980D01*
D23*
X60960Y474980D03*
D24*
X57830Y445100D02*
X63500Y439430D01*
X57830Y445100D02*
X45130Y445100D01*
X63500Y439430D02*
X63500Y439420D01*
D23*
X63500Y439420D03*
D24*
X59230Y347170D02*
X45130Y347170D01*
X59230Y347170D02*
X60960Y345440D01*
D23*
X60960Y345440D03*
D24*
X45130Y297170D02*
X45130Y284670D01*
X45130Y297170D02*
X60950Y297170D01*
X60960Y297180D01*
D23*
X60960Y297180D03*
D24*
X554252Y101600D02*
X571500Y101600D01*
D23*
X571500Y101600D03*
D24*
X546100Y121920D02*
X546100Y131548D01*
X546100Y121920D02*
X553720Y114300D01*
X563880Y114300D01*
X571500Y106680D01*
X571500Y101600D01*
X305286Y119380D02*
X294640Y119380D01*
X287020Y111760D01*
X287020Y63500D01*
X76200Y61446D02*
X76200Y50800D01*
X88900Y342900D02*
X88900Y462280D01*
X88900Y342900D02*
X88900Y254000D01*
X20320Y185420D01*
X20320Y157480D01*
X25400Y152400D01*
X39800Y152400D01*
X45130Y482600D02*
X68580Y482600D01*
X88900Y462280D01*
X72130Y359670D02*
X45130Y359670D01*
X72130Y359670D02*
X88900Y342900D01*
X76200Y101600D02*
X76200Y90954D01*
X76200Y101600D02*
X79400Y104800D01*
X90600Y104800D01*
X38100Y110541D02*
X38100Y127000D01*
X25400Y139700D01*
X25400Y152400D01*
X76200Y114300D02*
X76200Y101600D01*
X76200Y114300D02*
X63500Y127000D01*
X38100Y127000D01*
X228400Y80548D02*
X228600Y80748D01*
X228400Y80548D02*
X228400Y45130D01*
X139500Y45130D02*
X139500Y80548D01*
X139700Y80748D01*
X179500Y104800D02*
X181000Y104800D01*
X190500Y114300D01*
X190500Y127000D01*
X203200Y139700D01*
X350520Y132080D02*
X457200Y25400D01*
X350520Y132080D02*
X342900Y139700D01*
X254000Y139700D01*
X203200Y139700D01*
X128700Y152400D02*
X128700Y166800D01*
X139700Y177800D01*
X165100Y177800D01*
X203200Y139700D01*
X266700Y127000D02*
X266700Y117604D01*
X266700Y127000D02*
X254000Y139700D01*
X334794Y119380D02*
X345440Y119380D01*
X350520Y124460D01*
X350520Y132080D01*
X73000Y142900D02*
X61800Y142900D01*
X73000Y142900D02*
X76200Y139700D01*
X76200Y127000D01*
X79400Y123800D01*
X90600Y123800D01*
X93448Y165100D02*
X83820Y165100D01*
X78740Y160020D01*
X78740Y148640D01*
X73000Y142900D01*
X150700Y142900D02*
X161900Y142900D01*
X165100Y139700D01*
X165100Y127000D01*
X168300Y123800D01*
X179500Y123800D01*
X169648Y73660D02*
X162560Y73660D01*
X157480Y78740D01*
X157480Y112980D01*
X168300Y123800D01*
X228600Y106680D02*
X228600Y97052D01*
X228600Y106680D02*
X220980Y114300D01*
X201500Y114300D01*
X139700Y106680D02*
X139700Y97052D01*
X139700Y106680D02*
X132080Y114300D01*
X112600Y114300D01*
X71330Y309670D02*
X45130Y309670D01*
X71330Y309670D02*
X76200Y304800D01*
D23*
X76200Y304800D03*
X508000Y165100D03*
D24*
X508000Y135152D01*
X508000Y118848D02*
X508000Y109220D01*
X515620Y101600D01*
X537948Y101600D01*
X515620Y101600D02*
X508000Y93980D01*
X508000Y25400D01*
X63100Y457600D02*
X45130Y457600D01*
X63100Y457600D02*
X63500Y457200D01*
D23*
X63500Y457200D03*
D24*
X546100Y203200D02*
X546100Y185952D01*
D23*
X546100Y203200D03*
D24*
X533400Y50800D02*
X533400Y25400D01*
X533400Y50800D02*
X558800Y76200D01*
X584200Y76200D01*
X596900Y88900D01*
X596900Y177800D01*
X571500Y203200D01*
X546100Y203200D01*
X546100Y169648D02*
X546100Y147852D01*
M02*
