G04 EAGLE Gerber RS-274X export*
G75*
%MOMM*%
%FSLAX34Y34*%
%LPD*%
%INBottom Copper*%
%IPPOS*%
%AMOC8*
5,1,8,0,0,1.08239X$1,22.5*%
G01*
G04 Define Apertures*
%ADD10P,1.81452X8X22.5*%
%ADD11R,1.676400X1.676400*%
%ADD12C,0.756400*%
%ADD13C,0.152400*%
G36*
X270993Y11490D02*
X271244Y11662D01*
X271407Y11917D01*
X271458Y12216D01*
X271388Y12511D01*
X271235Y12731D01*
X264668Y19298D01*
X264668Y31502D01*
X273298Y40132D01*
X285502Y40132D01*
X291561Y34073D01*
X291814Y33906D01*
X292112Y33850D01*
X292408Y33915D01*
X292639Y34073D01*
X298698Y40132D01*
X310902Y40132D01*
X316961Y34073D01*
X317214Y33906D01*
X317512Y33850D01*
X317808Y33915D01*
X318039Y34073D01*
X324098Y40132D01*
X336302Y40132D01*
X342361Y34073D01*
X342614Y33906D01*
X342912Y33850D01*
X343208Y33915D01*
X343439Y34073D01*
X349498Y40132D01*
X361702Y40132D01*
X367761Y34073D01*
X368014Y33906D01*
X368312Y33850D01*
X368608Y33915D01*
X368839Y34073D01*
X374898Y40132D01*
X387102Y40132D01*
X395855Y31379D01*
X396108Y31211D01*
X396406Y31156D01*
X396702Y31221D01*
X396933Y31379D01*
X401876Y36322D01*
X405638Y36322D01*
X405638Y14478D01*
X401876Y14478D01*
X396933Y19421D01*
X396680Y19589D01*
X396382Y19644D01*
X396086Y19579D01*
X395855Y19421D01*
X389165Y12731D01*
X388998Y12478D01*
X388942Y12180D01*
X389007Y11884D01*
X389182Y11636D01*
X389441Y11477D01*
X389704Y11430D01*
X448496Y11430D01*
X448793Y11490D01*
X449044Y11662D01*
X449207Y11917D01*
X449258Y12216D01*
X449188Y12511D01*
X449035Y12731D01*
X442345Y19421D01*
X442092Y19589D01*
X441794Y19644D01*
X441498Y19579D01*
X441267Y19421D01*
X436324Y14478D01*
X432562Y14478D01*
X432562Y36322D01*
X436324Y36322D01*
X441267Y31379D01*
X441520Y31211D01*
X441818Y31156D01*
X442114Y31221D01*
X442345Y31379D01*
X451098Y40132D01*
X463302Y40132D01*
X471932Y31502D01*
X471932Y19298D01*
X465365Y12731D01*
X465198Y12478D01*
X465142Y12180D01*
X465207Y11884D01*
X465382Y11636D01*
X465641Y11477D01*
X465904Y11430D01*
X499296Y11430D01*
X499593Y11490D01*
X499844Y11662D01*
X500007Y11917D01*
X500058Y12216D01*
X499988Y12511D01*
X499835Y12731D01*
X493268Y19298D01*
X493268Y31502D01*
X501898Y40132D01*
X514102Y40132D01*
X520161Y34073D01*
X520414Y33906D01*
X520712Y33850D01*
X521008Y33915D01*
X521239Y34073D01*
X527298Y40132D01*
X539502Y40132D01*
X545561Y34073D01*
X545814Y33906D01*
X546112Y33850D01*
X546408Y33915D01*
X546639Y34073D01*
X552698Y40132D01*
X564902Y40132D01*
X570961Y34073D01*
X571214Y33906D01*
X571512Y33850D01*
X571808Y33915D01*
X572039Y34073D01*
X578098Y40132D01*
X590302Y40132D01*
X596361Y34073D01*
X596614Y33906D01*
X596912Y33850D01*
X597208Y33915D01*
X597439Y34073D01*
X603498Y40132D01*
X615702Y40132D01*
X621761Y34073D01*
X622014Y33906D01*
X622312Y33850D01*
X622608Y33915D01*
X622839Y34073D01*
X628898Y40132D01*
X641102Y40132D01*
X647161Y34073D01*
X647414Y33906D01*
X647712Y33850D01*
X648008Y33915D01*
X648239Y34073D01*
X654298Y40132D01*
X666502Y40132D01*
X672561Y34073D01*
X672814Y33906D01*
X673112Y33850D01*
X673408Y33915D01*
X673639Y34073D01*
X679698Y40132D01*
X691902Y40132D01*
X700532Y31502D01*
X700532Y19298D01*
X693965Y12731D01*
X693798Y12478D01*
X693742Y12180D01*
X693807Y11884D01*
X693982Y11636D01*
X694241Y11477D01*
X694504Y11430D01*
X727896Y11430D01*
X728193Y11490D01*
X728444Y11662D01*
X728607Y11917D01*
X728658Y12216D01*
X728588Y12511D01*
X728435Y12731D01*
X721868Y19298D01*
X721868Y31502D01*
X730498Y40132D01*
X742702Y40132D01*
X748761Y34073D01*
X749014Y33906D01*
X749312Y33850D01*
X749608Y33915D01*
X749839Y34073D01*
X755898Y40132D01*
X768102Y40132D01*
X774161Y34073D01*
X774414Y33906D01*
X774712Y33850D01*
X775008Y33915D01*
X775239Y34073D01*
X781298Y40132D01*
X793502Y40132D01*
X799561Y34073D01*
X799814Y33906D01*
X800112Y33850D01*
X800408Y33915D01*
X800639Y34073D01*
X806698Y40132D01*
X818902Y40132D01*
X824961Y34073D01*
X825214Y33906D01*
X825512Y33850D01*
X825808Y33915D01*
X826039Y34073D01*
X832098Y40132D01*
X844302Y40132D01*
X850361Y34073D01*
X850614Y33906D01*
X850912Y33850D01*
X851208Y33915D01*
X851439Y34073D01*
X857498Y40132D01*
X869702Y40132D01*
X875761Y34073D01*
X876014Y33906D01*
X876312Y33850D01*
X876608Y33915D01*
X876839Y34073D01*
X882898Y40132D01*
X895102Y40132D01*
X901161Y34073D01*
X901414Y33906D01*
X901712Y33850D01*
X902008Y33915D01*
X902239Y34073D01*
X908298Y40132D01*
X920502Y40132D01*
X929132Y31502D01*
X929132Y19298D01*
X922565Y12731D01*
X922398Y12478D01*
X922342Y12180D01*
X922407Y11884D01*
X922582Y11636D01*
X922841Y11477D01*
X923104Y11430D01*
X978408Y11430D01*
X978705Y11490D01*
X978955Y11662D01*
X979119Y11917D01*
X979170Y12192D01*
X979170Y27674D01*
X980910Y31875D01*
X1004347Y55311D01*
X1004514Y55564D01*
X1004570Y55850D01*
X1004570Y373410D01*
X1004510Y373707D01*
X1004347Y373949D01*
X980910Y397385D01*
X979170Y401586D01*
X979170Y513110D01*
X979110Y513407D01*
X978947Y513649D01*
X970849Y521747D01*
X970596Y521914D01*
X970310Y521970D01*
X872304Y521970D01*
X872007Y521910D01*
X871756Y521738D01*
X871593Y521483D01*
X871542Y521184D01*
X871612Y520889D01*
X871765Y520669D01*
X878332Y514102D01*
X878332Y501898D01*
X869702Y493268D01*
X857498Y493268D01*
X851439Y499327D01*
X851186Y499495D01*
X850888Y499550D01*
X850592Y499485D01*
X850361Y499327D01*
X844302Y493268D01*
X832098Y493268D01*
X826039Y499327D01*
X825786Y499495D01*
X825488Y499550D01*
X825192Y499485D01*
X824961Y499327D01*
X818902Y493268D01*
X806698Y493268D01*
X800639Y499327D01*
X800386Y499495D01*
X800088Y499550D01*
X799792Y499485D01*
X799561Y499327D01*
X793502Y493268D01*
X781298Y493268D01*
X775239Y499327D01*
X774986Y499495D01*
X774688Y499550D01*
X774392Y499485D01*
X774161Y499327D01*
X768102Y493268D01*
X755898Y493268D01*
X749839Y499327D01*
X749586Y499495D01*
X749288Y499550D01*
X748992Y499485D01*
X748761Y499327D01*
X742702Y493268D01*
X730498Y493268D01*
X724439Y499327D01*
X724186Y499495D01*
X723888Y499550D01*
X723592Y499485D01*
X723361Y499327D01*
X717302Y493268D01*
X705098Y493268D01*
X699039Y499327D01*
X698786Y499495D01*
X698488Y499550D01*
X698192Y499485D01*
X697961Y499327D01*
X691902Y493268D01*
X679698Y493268D01*
X671068Y501898D01*
X671068Y514102D01*
X677635Y520669D01*
X677803Y520922D01*
X677858Y521220D01*
X677793Y521516D01*
X677618Y521764D01*
X677360Y521923D01*
X677096Y521970D01*
X648614Y521970D01*
X648317Y521910D01*
X648067Y521738D01*
X647903Y521483D01*
X647852Y521184D01*
X647922Y520889D01*
X648075Y520669D01*
X648765Y519979D01*
X649732Y517645D01*
X649732Y498355D01*
X648765Y496021D01*
X646979Y494235D01*
X644645Y493268D01*
X625355Y493268D01*
X623021Y494235D01*
X621235Y496021D01*
X620857Y496933D01*
X620688Y497184D01*
X620433Y497350D01*
X620135Y497403D01*
X619839Y497336D01*
X619614Y497180D01*
X615702Y493268D01*
X603498Y493268D01*
X597439Y499327D01*
X597186Y499495D01*
X596888Y499550D01*
X596592Y499485D01*
X596361Y499327D01*
X590302Y493268D01*
X578098Y493268D01*
X572039Y499327D01*
X571786Y499495D01*
X571488Y499550D01*
X571192Y499485D01*
X570961Y499327D01*
X564902Y493268D01*
X552698Y493268D01*
X546639Y499327D01*
X546386Y499495D01*
X546088Y499550D01*
X545792Y499485D01*
X545561Y499327D01*
X539502Y493268D01*
X527298Y493268D01*
X521239Y499327D01*
X520986Y499495D01*
X520688Y499550D01*
X520392Y499485D01*
X520161Y499327D01*
X514102Y493268D01*
X501898Y493268D01*
X495839Y499327D01*
X495586Y499495D01*
X495288Y499550D01*
X494992Y499485D01*
X494761Y499327D01*
X488702Y493268D01*
X476498Y493268D01*
X470439Y499327D01*
X470186Y499495D01*
X469888Y499550D01*
X469592Y499485D01*
X469361Y499327D01*
X463302Y493268D01*
X451098Y493268D01*
X442468Y501898D01*
X442468Y514102D01*
X449035Y520669D01*
X449203Y520922D01*
X449258Y521220D01*
X449193Y521516D01*
X449018Y521764D01*
X448760Y521923D01*
X448496Y521970D01*
X425264Y521970D01*
X424967Y521910D01*
X424716Y521738D01*
X424553Y521483D01*
X424502Y521184D01*
X424572Y520889D01*
X424725Y520669D01*
X431292Y514102D01*
X431292Y501898D01*
X422662Y493268D01*
X410458Y493268D01*
X404399Y499327D01*
X404146Y499495D01*
X403848Y499550D01*
X403552Y499485D01*
X403321Y499327D01*
X397262Y493268D01*
X385058Y493268D01*
X378999Y499327D01*
X378746Y499495D01*
X378448Y499550D01*
X378152Y499485D01*
X377921Y499327D01*
X371862Y493268D01*
X359658Y493268D01*
X353599Y499327D01*
X353346Y499495D01*
X353048Y499550D01*
X352752Y499485D01*
X352521Y499327D01*
X346462Y493268D01*
X334258Y493268D01*
X328199Y499327D01*
X327946Y499495D01*
X327648Y499550D01*
X327352Y499485D01*
X327121Y499327D01*
X321062Y493268D01*
X308858Y493268D01*
X302799Y499327D01*
X302546Y499495D01*
X302248Y499550D01*
X301952Y499485D01*
X301721Y499327D01*
X295662Y493268D01*
X283458Y493268D01*
X274705Y502021D01*
X274452Y502189D01*
X274154Y502244D01*
X273858Y502179D01*
X273627Y502021D01*
X268684Y497078D01*
X264922Y497078D01*
X264922Y518922D01*
X268684Y518922D01*
X273627Y513979D01*
X273880Y513811D01*
X274178Y513756D01*
X274474Y513821D01*
X274705Y513979D01*
X281395Y520669D01*
X281563Y520922D01*
X281618Y521220D01*
X281553Y521516D01*
X281378Y521764D01*
X281120Y521923D01*
X280856Y521970D01*
X247464Y521970D01*
X247167Y521910D01*
X246916Y521738D01*
X246753Y521483D01*
X246702Y521184D01*
X246772Y520889D01*
X246925Y520669D01*
X253615Y513979D01*
X253868Y513811D01*
X254166Y513756D01*
X254462Y513821D01*
X254693Y513979D01*
X259636Y518922D01*
X263398Y518922D01*
X263398Y497078D01*
X259636Y497078D01*
X254693Y502021D01*
X254440Y502189D01*
X254142Y502244D01*
X253846Y502179D01*
X253615Y502021D01*
X244862Y493268D01*
X232658Y493268D01*
X227869Y498057D01*
X227616Y498225D01*
X227318Y498280D01*
X227022Y498215D01*
X226791Y498057D01*
X222002Y493268D01*
X209798Y493268D01*
X203739Y499327D01*
X203486Y499495D01*
X203188Y499550D01*
X202892Y499485D01*
X202661Y499327D01*
X196602Y493268D01*
X184398Y493268D01*
X175768Y501898D01*
X175768Y514102D01*
X182335Y520669D01*
X182503Y520922D01*
X182558Y521220D01*
X182493Y521516D01*
X182318Y521764D01*
X182060Y521923D01*
X181796Y521970D01*
X12192Y521970D01*
X11895Y521910D01*
X11645Y521738D01*
X11481Y521483D01*
X11430Y521208D01*
X11430Y12192D01*
X11490Y11895D01*
X11662Y11645D01*
X11917Y11481D01*
X12192Y11430D01*
X270696Y11430D01*
X270993Y11490D01*
G37*
%LPC*%
G36*
X505985Y154968D02*
X502261Y156511D01*
X499411Y159361D01*
X497868Y163085D01*
X497868Y167115D01*
X499411Y170839D01*
X500665Y172094D01*
X500832Y172347D01*
X500888Y172632D01*
X500888Y250739D01*
X500828Y251036D01*
X500665Y251277D01*
X454477Y297465D01*
X454224Y297632D01*
X453939Y297688D01*
X83732Y297688D01*
X83435Y297628D01*
X83194Y297465D01*
X81939Y296211D01*
X78215Y294668D01*
X74185Y294668D01*
X70461Y296211D01*
X67611Y299061D01*
X66068Y302785D01*
X66068Y306815D01*
X67611Y310539D01*
X70461Y313390D01*
X74185Y314932D01*
X78215Y314932D01*
X81939Y313390D01*
X83194Y312135D01*
X83447Y311968D01*
X83732Y311912D01*
X450891Y311912D01*
X451188Y311972D01*
X451438Y312144D01*
X451601Y312399D01*
X451652Y312698D01*
X451582Y312993D01*
X451429Y313213D01*
X314777Y449865D01*
X314524Y450032D01*
X314239Y450088D01*
X71032Y450088D01*
X70735Y450028D01*
X70494Y449865D01*
X69239Y448611D01*
X65515Y447068D01*
X61485Y447068D01*
X57761Y448611D01*
X54911Y451461D01*
X53368Y455185D01*
X53368Y459215D01*
X54911Y462939D01*
X57761Y465790D01*
X61485Y467332D01*
X65515Y467332D01*
X69239Y465790D01*
X70494Y464535D01*
X70747Y464368D01*
X71032Y464312D01*
X318915Y464312D01*
X321529Y463229D01*
X552129Y232629D01*
X553212Y230015D01*
X553212Y210732D01*
X553272Y210435D01*
X553435Y210194D01*
X554690Y208939D01*
X556232Y205215D01*
X556232Y201185D01*
X554690Y197461D01*
X551839Y194611D01*
X548115Y193068D01*
X544085Y193068D01*
X540361Y194611D01*
X537511Y197461D01*
X535968Y201185D01*
X535968Y205215D01*
X537511Y208939D01*
X538765Y210194D01*
X538932Y210447D01*
X538988Y210732D01*
X538988Y225339D01*
X538928Y225636D01*
X538765Y225877D01*
X516413Y248229D01*
X516160Y248397D01*
X515862Y248452D01*
X515566Y248387D01*
X515318Y248212D01*
X515159Y247954D01*
X515112Y247691D01*
X515112Y172632D01*
X515172Y172335D01*
X515335Y172094D01*
X516590Y170839D01*
X518132Y167115D01*
X518132Y163085D01*
X516590Y159361D01*
X513739Y156511D01*
X510015Y154968D01*
X505985Y154968D01*
G37*
G36*
X420878Y26162D02*
X420878Y29924D01*
X427276Y36322D01*
X431038Y36322D01*
X431038Y26162D01*
X420878Y26162D01*
G37*
G36*
X407162Y26162D02*
X407162Y36322D01*
X410924Y36322D01*
X417322Y29924D01*
X417322Y26162D01*
X407162Y26162D01*
G37*
G36*
X427276Y14478D02*
X420878Y20876D01*
X420878Y24638D01*
X431038Y24638D01*
X431038Y14478D01*
X427276Y14478D01*
G37*
G36*
X407162Y14478D02*
X407162Y24638D01*
X417322Y24638D01*
X417322Y20876D01*
X410924Y14478D01*
X407162Y14478D01*
G37*
%LPD*%
D10*
X533400Y508000D03*
X508000Y25400D03*
X558800Y508000D03*
X584200Y508000D03*
X609600Y508000D03*
D11*
X635000Y508000D03*
D10*
X508000Y508000D03*
X482600Y508000D03*
X457200Y508000D03*
X416560Y508000D03*
X391160Y508000D03*
X365760Y508000D03*
X340360Y508000D03*
X314960Y508000D03*
X289560Y508000D03*
X264160Y508000D03*
X238760Y508000D03*
X533400Y25400D03*
X558800Y25400D03*
X584200Y25400D03*
X609600Y25400D03*
X635000Y25400D03*
X457200Y25400D03*
X431800Y25400D03*
X406400Y25400D03*
X381000Y25400D03*
X355600Y25400D03*
X330200Y25400D03*
X685800Y508000D03*
X711200Y508000D03*
X736600Y508000D03*
X762000Y508000D03*
X787400Y508000D03*
X812800Y508000D03*
X838200Y508000D03*
X863600Y508000D03*
X660400Y25400D03*
X685800Y25400D03*
X736600Y25400D03*
X762000Y25400D03*
X787400Y25400D03*
X812800Y25400D03*
X838200Y25400D03*
X863600Y25400D03*
X889000Y25400D03*
X914400Y25400D03*
X215900Y508000D03*
X190500Y508000D03*
X304800Y25400D03*
X279400Y25400D03*
D12*
X215900Y73660D03*
X38100Y38100D03*
X121920Y172720D03*
X287020Y63500D03*
X60960Y474980D03*
X63500Y439420D03*
X60960Y345440D03*
X60960Y297180D03*
X571500Y101600D03*
X76200Y304800D03*
D13*
X457200Y304800D01*
X508000Y254000D01*
X508000Y165100D01*
D12*
X508000Y165100D03*
X63500Y457200D03*
D13*
X317500Y457200D01*
X546100Y228600D01*
D12*
X546100Y203200D03*
D13*
X546100Y228600D01*
M02*
