M48
;GenerationSoftware,Autodesk,EAGLE,9.7.0*%
;CreationDate,2022-04-01T05:24:31Z*%
FMAT,2
ICI,OFF
METRIC,TZ,000.000
T2C0.350
T1C1.000
%
G90
M71
T1
X55880Y2540
X30480Y2540
X19050Y50800
X21590Y50800
X91440Y2540
X88900Y2540
X86360Y2540
X83820Y2540
X81280Y2540
X78740Y2540
X76200Y2540
X73660Y2540
X68580Y2540
X53340Y50800
X50800Y2540
X55880Y50800
X58420Y50800
X60960Y50800
X63500Y50800
X50800Y50800
X48260Y50800
X45720Y50800
X41656Y50800
X39116Y50800
X36576Y50800
X34036Y50800
X31496Y50800
X28956Y50800
X26416Y50800
X23876Y50800
X53340Y2540
X27940Y2540
X58420Y2540
X60960Y2540
X63500Y2540
X45720Y2540
X43180Y2540
X40640Y2540
X38100Y2540
X35560Y2540
X33020Y2540
X68580Y50800
X71120Y50800
X73660Y50800
X76200Y50800
X78740Y50800
X81280Y50800
X83820Y50800
X86360Y50800
X66040Y2540
T2
X54610Y20320
X6350Y45720
X50800Y16510
X7620Y30480
X57150Y10160
X6096Y29718
X6096Y34544
X6350Y43942
X6096Y47498
X28702Y6350
X12192Y17272
X3810Y3810
X21590Y7366
M30