G04 EAGLE Gerber RS-274X export*
G75*
%MOMM*%
%FSLAX34Y34*%
%LPD*%
%INSoldermask Top*%
%IPPOS*%
%AMOC8*
5,1,8,0,0,1.08239X$1,22.5*%
G01*
G04 Define Apertures*
%ADD10P,2.03446X8X22.5*%
%ADD11R,1.879600X1.879600*%
%ADD12R,2.327100X2.487300*%
%ADD13R,1.564400X1.317800*%
%ADD14R,1.603200X1.203200*%
%ADD15R,1.001900X1.177100*%
%ADD16R,1.177100X1.001900*%
%ADD17R,1.003200X1.403200*%
%ADD18R,1.503200X2.353200*%
%ADD19R,1.403200X1.003200*%
%ADD20R,2.353200X1.503200*%
%ADD21R,2.018500X1.367800*%
%ADD22R,1.367800X2.018500*%
%ADD23C,0.959600*%
D10*
X533400Y508000D03*
X508000Y25400D03*
X558800Y508000D03*
X584200Y508000D03*
X609600Y508000D03*
D11*
X635000Y508000D03*
D10*
X508000Y508000D03*
X482600Y508000D03*
X457200Y508000D03*
X416560Y508000D03*
X391160Y508000D03*
X365760Y508000D03*
X340360Y508000D03*
X314960Y508000D03*
X289560Y508000D03*
X264160Y508000D03*
X238760Y508000D03*
X533400Y25400D03*
X558800Y25400D03*
X584200Y25400D03*
X609600Y25400D03*
X635000Y25400D03*
X457200Y25400D03*
X431800Y25400D03*
X406400Y25400D03*
X381000Y25400D03*
X355600Y25400D03*
X330200Y25400D03*
X685800Y508000D03*
X711200Y508000D03*
X736600Y508000D03*
X762000Y508000D03*
X787400Y508000D03*
X812800Y508000D03*
X838200Y508000D03*
X863600Y508000D03*
X660400Y25400D03*
X685800Y25400D03*
X736600Y25400D03*
X762000Y25400D03*
X787400Y25400D03*
X812800Y25400D03*
X838200Y25400D03*
X863600Y25400D03*
X889000Y25400D03*
X914400Y25400D03*
X215900Y508000D03*
X190500Y508000D03*
X304800Y25400D03*
X279400Y25400D03*
D12*
X38100Y110541D03*
X38100Y67259D03*
D13*
X266700Y117604D03*
X266700Y85596D03*
D14*
X39800Y152400D03*
X61800Y161900D03*
X61800Y142900D03*
X128700Y152400D03*
X150700Y161900D03*
X150700Y142900D03*
D15*
X185952Y73660D03*
X169648Y73660D03*
X109752Y165100D03*
X93448Y165100D03*
D16*
X139700Y80748D03*
X139700Y97052D03*
X228600Y80748D03*
X228600Y97052D03*
D17*
X215900Y45130D03*
X228400Y45130D03*
D18*
X196900Y22180D03*
X247400Y22180D03*
D17*
X127000Y45130D03*
X139500Y45130D03*
D18*
X108000Y22180D03*
X158500Y22180D03*
D19*
X45130Y372170D03*
X45130Y359670D03*
X45130Y347170D03*
X45130Y334670D03*
X45130Y322170D03*
X45130Y309670D03*
X45130Y297170D03*
X45130Y284670D03*
D20*
X22180Y391170D03*
X22180Y265670D03*
D16*
X508000Y118848D03*
X508000Y135152D03*
D15*
X554252Y101600D03*
X537948Y101600D03*
D19*
X45130Y482600D03*
X45130Y470100D03*
X45130Y457600D03*
X45130Y445100D03*
D20*
X22180Y501600D03*
X22180Y426100D03*
D16*
X546100Y169648D03*
X546100Y185952D03*
X546100Y131548D03*
X546100Y147852D03*
D21*
X76200Y90954D03*
X76200Y61446D03*
D22*
X334794Y119380D03*
X305286Y119380D03*
D14*
X112600Y114300D03*
X90600Y104800D03*
X90600Y123800D03*
X201500Y114300D03*
X179500Y104800D03*
X179500Y123800D03*
D23*
X215900Y73660D03*
X38100Y38100D03*
X121920Y172720D03*
X287020Y63500D03*
X60960Y474980D03*
X63500Y439420D03*
X60960Y345440D03*
X60960Y297180D03*
X571500Y101600D03*
X76200Y304800D03*
X508000Y165100D03*
X63500Y457200D03*
X546100Y203200D03*
M02*
