G04 EAGLE Gerber RS-274X export*
G75*
%MOMM*%
%FSLAX34Y34*%
%LPD*%
%INSolderpaste Top*%
%IPPOS*%
%AMOC8*
5,1,8,0,0,1.08239X$1,22.5*%
G01*
G04 Define Apertures*
%ADD10R,2.123900X2.284100*%
%ADD11R,1.361200X1.114600*%
%ADD12R,1.400000X1.000000*%
%ADD13R,0.798700X0.973900*%
%ADD14R,0.973900X0.798700*%
%ADD15R,0.800000X1.200000*%
%ADD16R,1.300000X2.150000*%
%ADD17R,1.200000X0.800000*%
%ADD18R,2.150000X1.300000*%
%ADD19R,1.815300X1.164600*%
%ADD20R,1.164600X1.815300*%
D10*
X38100Y110541D03*
X38100Y67259D03*
D11*
X266700Y117604D03*
X266700Y85596D03*
D12*
X39800Y152400D03*
X61800Y161900D03*
X61800Y142900D03*
X128700Y152400D03*
X150700Y161900D03*
X150700Y142900D03*
D13*
X185952Y73660D03*
X169648Y73660D03*
X109752Y165100D03*
X93448Y165100D03*
D14*
X139700Y80748D03*
X139700Y97052D03*
X228600Y80748D03*
X228600Y97052D03*
D15*
X215900Y45130D03*
X228400Y45130D03*
D16*
X196900Y22180D03*
X247400Y22180D03*
D15*
X127000Y45130D03*
X139500Y45130D03*
D16*
X108000Y22180D03*
X158500Y22180D03*
D17*
X45130Y372170D03*
X45130Y359670D03*
X45130Y347170D03*
X45130Y334670D03*
X45130Y322170D03*
X45130Y309670D03*
X45130Y297170D03*
X45130Y284670D03*
D18*
X22180Y391170D03*
X22180Y265670D03*
D14*
X508000Y118848D03*
X508000Y135152D03*
D13*
X554252Y101600D03*
X537948Y101600D03*
D17*
X45130Y482600D03*
X45130Y470100D03*
X45130Y457600D03*
X45130Y445100D03*
D18*
X22180Y501600D03*
X22180Y426100D03*
D14*
X546100Y169648D03*
X546100Y185952D03*
X546100Y131548D03*
X546100Y147852D03*
D19*
X76200Y90954D03*
X76200Y61446D03*
D20*
X334794Y119380D03*
X305286Y119380D03*
D12*
X112600Y114300D03*
X90600Y104800D03*
X90600Y123800D03*
X201500Y114300D03*
X179500Y104800D03*
X179500Y123800D03*
M02*
