G04 EAGLE Gerber RS-274X export*
G75*
%MOMM*%
%FSLAX34Y34*%
%LPD*%
%INBottom Copper*%
%IPPOS*%
%AMOC8*
5,1,8,0,0,1.08239X$1,22.5*%
G01*
G04 Define Apertures*
%ADD10P,1.81452X8X22.5*%
%ADD11R,1.676400X1.676400*%
%ADD12C,0.756400*%
%ADD13C,0.152400*%
G36*
X270993Y11490D02*
X271244Y11662D01*
X271407Y11917D01*
X271458Y12216D01*
X271388Y12511D01*
X271235Y12731D01*
X264668Y19298D01*
X264668Y31502D01*
X273298Y40132D01*
X285502Y40132D01*
X291561Y34073D01*
X291814Y33906D01*
X292112Y33850D01*
X292408Y33915D01*
X292639Y34073D01*
X298698Y40132D01*
X310902Y40132D01*
X316961Y34073D01*
X317214Y33906D01*
X317512Y33850D01*
X317808Y33915D01*
X318039Y34073D01*
X324098Y40132D01*
X336302Y40132D01*
X342361Y34073D01*
X342614Y33906D01*
X342912Y33850D01*
X343208Y33915D01*
X343439Y34073D01*
X348265Y38899D01*
X348432Y39152D01*
X348488Y39438D01*
X348488Y64915D01*
X349571Y67529D01*
X376971Y94929D01*
X379585Y96012D01*
X830326Y96012D01*
X830623Y96072D01*
X830873Y96244D01*
X831037Y96499D01*
X831088Y96774D01*
X831088Y348068D01*
X831028Y348365D01*
X830865Y348606D01*
X829611Y349861D01*
X828068Y353585D01*
X828068Y357615D01*
X829611Y361339D01*
X832461Y364190D01*
X836185Y365732D01*
X840215Y365732D01*
X843939Y364190D01*
X845194Y362935D01*
X845447Y362768D01*
X845732Y362712D01*
X856068Y362712D01*
X856365Y362772D01*
X856606Y362935D01*
X857861Y364190D01*
X861585Y365732D01*
X865615Y365732D01*
X869339Y364190D01*
X872190Y361339D01*
X873732Y357615D01*
X873732Y353585D01*
X872190Y349861D01*
X869339Y347011D01*
X865615Y345468D01*
X861585Y345468D01*
X857861Y347011D01*
X856606Y348265D01*
X856354Y348432D01*
X856068Y348488D01*
X846074Y348488D01*
X845777Y348428D01*
X845527Y348256D01*
X845363Y348001D01*
X845312Y347726D01*
X845312Y96432D01*
X845372Y96135D01*
X845535Y95894D01*
X846790Y94639D01*
X848332Y90915D01*
X848332Y86885D01*
X846790Y83161D01*
X843939Y80311D01*
X840215Y78768D01*
X836185Y78768D01*
X832461Y80311D01*
X831206Y81565D01*
X830954Y81732D01*
X830668Y81788D01*
X384262Y81788D01*
X383964Y81728D01*
X383723Y81565D01*
X362935Y60777D01*
X362768Y60524D01*
X362712Y60239D01*
X362712Y39438D01*
X362772Y39141D01*
X362935Y38899D01*
X367761Y34073D01*
X368014Y33906D01*
X368312Y33850D01*
X368608Y33915D01*
X368839Y34073D01*
X374898Y40132D01*
X387102Y40132D01*
X395855Y31379D01*
X396108Y31211D01*
X396406Y31156D01*
X396702Y31221D01*
X396933Y31379D01*
X401876Y36322D01*
X405638Y36322D01*
X405638Y14478D01*
X401876Y14478D01*
X396933Y19421D01*
X396680Y19589D01*
X396382Y19644D01*
X396086Y19579D01*
X395855Y19421D01*
X389165Y12731D01*
X388998Y12478D01*
X388942Y12180D01*
X389007Y11884D01*
X389182Y11636D01*
X389441Y11477D01*
X389704Y11430D01*
X448496Y11430D01*
X448793Y11490D01*
X449044Y11662D01*
X449207Y11917D01*
X449258Y12216D01*
X449188Y12511D01*
X449035Y12731D01*
X442345Y19421D01*
X442092Y19589D01*
X441794Y19644D01*
X441498Y19579D01*
X441267Y19421D01*
X436324Y14478D01*
X432562Y14478D01*
X432562Y36322D01*
X436324Y36322D01*
X441267Y31379D01*
X441520Y31211D01*
X441818Y31156D01*
X442114Y31221D01*
X442345Y31379D01*
X451098Y40132D01*
X463302Y40132D01*
X471932Y31502D01*
X471932Y19298D01*
X465365Y12731D01*
X465198Y12478D01*
X465142Y12180D01*
X465207Y11884D01*
X465382Y11636D01*
X465641Y11477D01*
X465904Y11430D01*
X499296Y11430D01*
X499593Y11490D01*
X499844Y11662D01*
X500007Y11917D01*
X500058Y12216D01*
X499988Y12511D01*
X499835Y12731D01*
X493268Y19298D01*
X493268Y31502D01*
X501898Y40132D01*
X514102Y40132D01*
X520161Y34073D01*
X520414Y33906D01*
X520712Y33850D01*
X521008Y33915D01*
X521239Y34073D01*
X527298Y40132D01*
X539502Y40132D01*
X545561Y34073D01*
X545814Y33906D01*
X546112Y33850D01*
X546408Y33915D01*
X546639Y34073D01*
X552698Y40132D01*
X564902Y40132D01*
X570961Y34073D01*
X571214Y33906D01*
X571512Y33850D01*
X571808Y33915D01*
X572039Y34073D01*
X578098Y40132D01*
X590302Y40132D01*
X596361Y34073D01*
X596614Y33906D01*
X596912Y33850D01*
X597208Y33915D01*
X597439Y34073D01*
X603498Y40132D01*
X615702Y40132D01*
X621761Y34073D01*
X622014Y33906D01*
X622312Y33850D01*
X622608Y33915D01*
X622839Y34073D01*
X628898Y40132D01*
X641102Y40132D01*
X647161Y34073D01*
X647414Y33906D01*
X647712Y33850D01*
X648008Y33915D01*
X648239Y34073D01*
X654298Y40132D01*
X666502Y40132D01*
X672561Y34073D01*
X672814Y33906D01*
X673112Y33850D01*
X673408Y33915D01*
X673639Y34073D01*
X679698Y40132D01*
X691902Y40132D01*
X700532Y31502D01*
X700532Y19298D01*
X693965Y12731D01*
X693798Y12478D01*
X693742Y12180D01*
X693807Y11884D01*
X693982Y11636D01*
X694241Y11477D01*
X694504Y11430D01*
X727896Y11430D01*
X728193Y11490D01*
X728444Y11662D01*
X728607Y11917D01*
X728658Y12216D01*
X728588Y12511D01*
X728435Y12731D01*
X721868Y19298D01*
X721868Y31502D01*
X730498Y40132D01*
X742702Y40132D01*
X748761Y34073D01*
X749014Y33906D01*
X749312Y33850D01*
X749608Y33915D01*
X749839Y34073D01*
X755898Y40132D01*
X768102Y40132D01*
X774161Y34073D01*
X774414Y33906D01*
X774712Y33850D01*
X775008Y33915D01*
X775239Y34073D01*
X781298Y40132D01*
X793502Y40132D01*
X799561Y34073D01*
X799814Y33906D01*
X800112Y33850D01*
X800408Y33915D01*
X800639Y34073D01*
X806698Y40132D01*
X818902Y40132D01*
X824961Y34073D01*
X825214Y33906D01*
X825512Y33850D01*
X825808Y33915D01*
X826039Y34073D01*
X832098Y40132D01*
X844302Y40132D01*
X850361Y34073D01*
X850614Y33906D01*
X850912Y33850D01*
X851208Y33915D01*
X851439Y34073D01*
X857498Y40132D01*
X869702Y40132D01*
X875761Y34073D01*
X876014Y33906D01*
X876312Y33850D01*
X876608Y33915D01*
X876839Y34073D01*
X882898Y40132D01*
X895102Y40132D01*
X901161Y34073D01*
X901414Y33906D01*
X901712Y33850D01*
X902008Y33915D01*
X902239Y34073D01*
X908298Y40132D01*
X920502Y40132D01*
X929132Y31502D01*
X929132Y19298D01*
X922565Y12731D01*
X922398Y12478D01*
X922342Y12180D01*
X922407Y11884D01*
X922582Y11636D01*
X922841Y11477D01*
X923104Y11430D01*
X978408Y11430D01*
X978705Y11490D01*
X978955Y11662D01*
X979119Y11917D01*
X979170Y12192D01*
X979170Y27674D01*
X980910Y31875D01*
X1004347Y55311D01*
X1004514Y55564D01*
X1004570Y55850D01*
X1004570Y373410D01*
X1004510Y373707D01*
X1004347Y373949D01*
X980910Y397385D01*
X979170Y401586D01*
X979170Y513110D01*
X979110Y513407D01*
X978947Y513649D01*
X970849Y521747D01*
X970596Y521914D01*
X970310Y521970D01*
X872304Y521970D01*
X872007Y521910D01*
X871756Y521738D01*
X871593Y521483D01*
X871542Y521184D01*
X871612Y520889D01*
X871765Y520669D01*
X878332Y514102D01*
X878332Y501898D01*
X869702Y493268D01*
X857498Y493268D01*
X851439Y499327D01*
X851186Y499495D01*
X850888Y499550D01*
X850592Y499485D01*
X850361Y499327D01*
X844302Y493268D01*
X832098Y493268D01*
X826039Y499327D01*
X825786Y499495D01*
X825488Y499550D01*
X825192Y499485D01*
X824961Y499327D01*
X818902Y493268D01*
X806698Y493268D01*
X800639Y499327D01*
X800386Y499495D01*
X800088Y499550D01*
X799792Y499485D01*
X799561Y499327D01*
X793502Y493268D01*
X781298Y493268D01*
X775239Y499327D01*
X774986Y499495D01*
X774688Y499550D01*
X774392Y499485D01*
X774161Y499327D01*
X768102Y493268D01*
X755898Y493268D01*
X749839Y499327D01*
X749586Y499495D01*
X749288Y499550D01*
X748992Y499485D01*
X748761Y499327D01*
X742702Y493268D01*
X730498Y493268D01*
X724439Y499327D01*
X724186Y499495D01*
X723888Y499550D01*
X723592Y499485D01*
X723361Y499327D01*
X717302Y493268D01*
X705098Y493268D01*
X699039Y499327D01*
X698786Y499495D01*
X698488Y499550D01*
X698192Y499485D01*
X697961Y499327D01*
X691902Y493268D01*
X679698Y493268D01*
X671068Y501898D01*
X671068Y514102D01*
X677635Y520669D01*
X677803Y520922D01*
X677858Y521220D01*
X677793Y521516D01*
X677618Y521764D01*
X677360Y521923D01*
X677096Y521970D01*
X648614Y521970D01*
X648317Y521910D01*
X648067Y521738D01*
X647903Y521483D01*
X647852Y521184D01*
X647922Y520889D01*
X648075Y520669D01*
X648765Y519979D01*
X649732Y517645D01*
X649732Y498355D01*
X648765Y496021D01*
X646979Y494235D01*
X644645Y493268D01*
X625355Y493268D01*
X623021Y494235D01*
X621235Y496021D01*
X620857Y496933D01*
X620688Y497184D01*
X620433Y497350D01*
X620135Y497403D01*
X619839Y497336D01*
X619614Y497180D01*
X615702Y493268D01*
X603498Y493268D01*
X597439Y499327D01*
X597186Y499495D01*
X596888Y499550D01*
X596592Y499485D01*
X596361Y499327D01*
X590302Y493268D01*
X578098Y493268D01*
X572039Y499327D01*
X571786Y499495D01*
X571488Y499550D01*
X571192Y499485D01*
X570961Y499327D01*
X564902Y493268D01*
X552698Y493268D01*
X546639Y499327D01*
X546386Y499495D01*
X546088Y499550D01*
X545792Y499485D01*
X545561Y499327D01*
X539502Y493268D01*
X527298Y493268D01*
X521239Y499327D01*
X520986Y499495D01*
X520688Y499550D01*
X520392Y499485D01*
X520161Y499327D01*
X514102Y493268D01*
X501898Y493268D01*
X495839Y499327D01*
X495586Y499495D01*
X495288Y499550D01*
X494992Y499485D01*
X494761Y499327D01*
X488702Y493268D01*
X476498Y493268D01*
X470439Y499327D01*
X470186Y499495D01*
X469888Y499550D01*
X469592Y499485D01*
X469361Y499327D01*
X463302Y493268D01*
X451098Y493268D01*
X442468Y501898D01*
X442468Y514102D01*
X449035Y520669D01*
X449203Y520922D01*
X449258Y521220D01*
X449193Y521516D01*
X449018Y521764D01*
X448760Y521923D01*
X448496Y521970D01*
X425264Y521970D01*
X424967Y521910D01*
X424716Y521738D01*
X424553Y521483D01*
X424502Y521184D01*
X424572Y520889D01*
X424725Y520669D01*
X431292Y514102D01*
X431292Y501898D01*
X422662Y493268D01*
X410458Y493268D01*
X404399Y499327D01*
X404146Y499495D01*
X403848Y499550D01*
X403552Y499485D01*
X403321Y499327D01*
X397262Y493268D01*
X385058Y493268D01*
X378999Y499327D01*
X378746Y499495D01*
X378448Y499550D01*
X378152Y499485D01*
X377921Y499327D01*
X371862Y493268D01*
X359658Y493268D01*
X353599Y499327D01*
X353346Y499495D01*
X353048Y499550D01*
X352752Y499485D01*
X352521Y499327D01*
X346462Y493268D01*
X334258Y493268D01*
X328199Y499327D01*
X327946Y499495D01*
X327648Y499550D01*
X327352Y499485D01*
X327121Y499327D01*
X321062Y493268D01*
X308858Y493268D01*
X302799Y499327D01*
X302546Y499495D01*
X302248Y499550D01*
X301952Y499485D01*
X301721Y499327D01*
X295662Y493268D01*
X283458Y493268D01*
X274705Y502021D01*
X274452Y502189D01*
X274154Y502244D01*
X273858Y502179D01*
X273627Y502021D01*
X268684Y497078D01*
X264922Y497078D01*
X264922Y518922D01*
X268684Y518922D01*
X273627Y513979D01*
X273880Y513811D01*
X274178Y513756D01*
X274474Y513821D01*
X274705Y513979D01*
X281395Y520669D01*
X281563Y520922D01*
X281618Y521220D01*
X281553Y521516D01*
X281378Y521764D01*
X281120Y521923D01*
X280856Y521970D01*
X247464Y521970D01*
X247167Y521910D01*
X246916Y521738D01*
X246753Y521483D01*
X246702Y521184D01*
X246772Y520889D01*
X246925Y520669D01*
X253615Y513979D01*
X253868Y513811D01*
X254166Y513756D01*
X254462Y513821D01*
X254693Y513979D01*
X259636Y518922D01*
X263398Y518922D01*
X263398Y497078D01*
X259636Y497078D01*
X254693Y502021D01*
X254440Y502189D01*
X254142Y502244D01*
X253846Y502179D01*
X253615Y502021D01*
X244862Y493268D01*
X232658Y493268D01*
X227869Y498057D01*
X227616Y498225D01*
X227318Y498280D01*
X227022Y498215D01*
X226791Y498057D01*
X222002Y493268D01*
X209798Y493268D01*
X203739Y499327D01*
X203486Y499495D01*
X203188Y499550D01*
X202892Y499485D01*
X202661Y499327D01*
X196602Y493268D01*
X184398Y493268D01*
X175768Y501898D01*
X175768Y514102D01*
X182335Y520669D01*
X182503Y520922D01*
X182558Y521220D01*
X182493Y521516D01*
X182318Y521764D01*
X182060Y521923D01*
X181796Y521970D01*
X12192Y521970D01*
X11895Y521910D01*
X11645Y521738D01*
X11481Y521483D01*
X11430Y521208D01*
X11430Y12192D01*
X11490Y11895D01*
X11662Y11645D01*
X11917Y11481D01*
X12192Y11430D01*
X270696Y11430D01*
X270993Y11490D01*
G37*
%LPC*%
G36*
X328185Y434368D02*
X324461Y435911D01*
X321611Y438761D01*
X320068Y442485D01*
X320068Y444259D01*
X320008Y444556D01*
X319845Y444797D01*
X314777Y449865D01*
X314524Y450032D01*
X314239Y450088D01*
X121832Y450088D01*
X121535Y450028D01*
X121294Y449865D01*
X120039Y448611D01*
X116315Y447068D01*
X112285Y447068D01*
X108561Y448611D01*
X105711Y451461D01*
X104168Y455185D01*
X104168Y459215D01*
X105711Y462939D01*
X108561Y465790D01*
X112285Y467332D01*
X116315Y467332D01*
X120039Y465790D01*
X121294Y464535D01*
X121547Y464368D01*
X121832Y464312D01*
X318915Y464312D01*
X321529Y463229D01*
X329903Y454855D01*
X330156Y454688D01*
X330442Y454632D01*
X332215Y454632D01*
X335939Y453090D01*
X338790Y450239D01*
X340332Y446515D01*
X340332Y442485D01*
X338790Y438761D01*
X335939Y435911D01*
X332215Y434368D01*
X328185Y434368D01*
G37*
G36*
X378985Y345468D02*
X375261Y347011D01*
X372411Y349861D01*
X370868Y353585D01*
X370868Y355359D01*
X370808Y355656D01*
X370645Y355897D01*
X302077Y424465D01*
X301824Y424632D01*
X301539Y424688D01*
X83732Y424688D01*
X83435Y424628D01*
X83194Y424465D01*
X81939Y423211D01*
X78215Y421668D01*
X74185Y421668D01*
X70461Y423211D01*
X67611Y426061D01*
X66068Y429785D01*
X66068Y433815D01*
X67611Y437539D01*
X70461Y440390D01*
X74185Y441932D01*
X78215Y441932D01*
X81939Y440390D01*
X83194Y439135D01*
X83447Y438968D01*
X83732Y438912D01*
X306215Y438912D01*
X308829Y437829D01*
X380703Y365955D01*
X380956Y365788D01*
X381242Y365732D01*
X383015Y365732D01*
X386739Y364190D01*
X389590Y361339D01*
X391132Y357615D01*
X391132Y353585D01*
X389590Y349861D01*
X386739Y347011D01*
X383015Y345468D01*
X378985Y345468D01*
G37*
G36*
X429785Y256568D02*
X426061Y258111D01*
X423211Y260961D01*
X421668Y264685D01*
X421668Y266459D01*
X421608Y266756D01*
X421445Y266997D01*
X365577Y322865D01*
X365324Y323032D01*
X365039Y323088D01*
X83732Y323088D01*
X83435Y323028D01*
X83194Y322865D01*
X81939Y321611D01*
X78215Y320068D01*
X74185Y320068D01*
X70461Y321611D01*
X67611Y324461D01*
X66068Y328185D01*
X66068Y332215D01*
X67611Y335939D01*
X70461Y338790D01*
X74185Y340332D01*
X78215Y340332D01*
X81939Y338790D01*
X83194Y337535D01*
X83447Y337368D01*
X83732Y337312D01*
X369715Y337312D01*
X372329Y336229D01*
X431503Y277055D01*
X431756Y276888D01*
X432042Y276832D01*
X433815Y276832D01*
X437539Y275290D01*
X440390Y272439D01*
X441932Y268715D01*
X441932Y264685D01*
X440390Y260961D01*
X437539Y258111D01*
X433815Y256568D01*
X429785Y256568D01*
G37*
G36*
X450105Y175288D02*
X446381Y176831D01*
X443531Y179681D01*
X441988Y183405D01*
X441988Y185179D01*
X441928Y185476D01*
X441765Y185717D01*
X406217Y221265D01*
X405964Y221432D01*
X405679Y221488D01*
X83732Y221488D01*
X83435Y221428D01*
X83194Y221265D01*
X81939Y220011D01*
X78215Y218468D01*
X74185Y218468D01*
X70461Y220011D01*
X67611Y222861D01*
X66068Y226585D01*
X66068Y230615D01*
X67611Y234339D01*
X70461Y237190D01*
X74185Y238732D01*
X78215Y238732D01*
X81939Y237190D01*
X83194Y235935D01*
X83447Y235768D01*
X83732Y235712D01*
X410355Y235712D01*
X412969Y234629D01*
X451823Y195775D01*
X452076Y195608D01*
X452362Y195552D01*
X454135Y195552D01*
X457859Y194010D01*
X460710Y191159D01*
X462252Y187435D01*
X462252Y183405D01*
X460710Y179681D01*
X457859Y176831D01*
X454135Y175288D01*
X450105Y175288D01*
G37*
G36*
X420878Y26162D02*
X420878Y29924D01*
X427276Y36322D01*
X431038Y36322D01*
X431038Y26162D01*
X420878Y26162D01*
G37*
G36*
X407162Y26162D02*
X407162Y36322D01*
X410924Y36322D01*
X417322Y29924D01*
X417322Y26162D01*
X407162Y26162D01*
G37*
G36*
X407162Y14478D02*
X407162Y24638D01*
X417322Y24638D01*
X417322Y20876D01*
X410924Y14478D01*
X407162Y14478D01*
G37*
G36*
X427276Y14478D02*
X420878Y20876D01*
X420878Y24638D01*
X431038Y24638D01*
X431038Y14478D01*
X427276Y14478D01*
G37*
%LPD*%
D10*
X533400Y508000D03*
X508000Y25400D03*
X558800Y508000D03*
X584200Y508000D03*
X609600Y508000D03*
D11*
X635000Y508000D03*
D10*
X508000Y508000D03*
X482600Y508000D03*
X457200Y508000D03*
X416560Y508000D03*
X391160Y508000D03*
X365760Y508000D03*
X340360Y508000D03*
X314960Y508000D03*
X289560Y508000D03*
X264160Y508000D03*
X238760Y508000D03*
X533400Y25400D03*
X558800Y25400D03*
X584200Y25400D03*
X609600Y25400D03*
X635000Y25400D03*
X457200Y25400D03*
X431800Y25400D03*
X406400Y25400D03*
X381000Y25400D03*
X355600Y25400D03*
X330200Y25400D03*
X685800Y508000D03*
X711200Y508000D03*
X736600Y508000D03*
X762000Y508000D03*
X787400Y508000D03*
X812800Y508000D03*
X838200Y508000D03*
X863600Y508000D03*
X660400Y25400D03*
X685800Y25400D03*
X736600Y25400D03*
X762000Y25400D03*
X787400Y25400D03*
X812800Y25400D03*
X838200Y25400D03*
X863600Y25400D03*
X889000Y25400D03*
X914400Y25400D03*
X215900Y508000D03*
X190500Y508000D03*
X304800Y25400D03*
X279400Y25400D03*
D12*
X452120Y185420D03*
X76200Y228600D03*
D13*
X408940Y228600D01*
X452120Y185420D01*
D12*
X431800Y266700D03*
X76200Y330200D03*
D13*
X368300Y330200D01*
X431800Y266700D01*
D12*
X381000Y355600D03*
X76200Y431800D03*
D13*
X304800Y431800D01*
X381000Y355600D01*
X330200Y444500D02*
X317500Y457200D01*
D12*
X330200Y444500D03*
X114300Y457200D03*
D13*
X317500Y457200D01*
D12*
X215900Y73660D03*
X127000Y73660D03*
X939800Y142240D03*
X38100Y38100D03*
X121920Y172720D03*
X292100Y63500D03*
X76200Y406400D03*
X76200Y304800D03*
X76200Y208280D03*
X88900Y457200D03*
X584200Y177800D03*
X558800Y177800D03*
X533400Y177800D03*
X508000Y177800D03*
X939800Y304800D03*
D13*
X381000Y88900D02*
X355600Y63500D01*
X355600Y25400D01*
D12*
X863600Y355600D03*
D13*
X838200Y355600D01*
D12*
X838200Y355600D03*
D13*
X838200Y88900D01*
D12*
X838200Y88900D03*
D13*
X381000Y88900D01*
M02*
