G04 EAGLE Gerber RS-274X export*
G75*
%MOMM*%
%FSLAX34Y34*%
%LPD*%
%INTop Copper*%
%IPPOS*%
%AMOC8*
5,1,8,0,0,1.08239X$1,22.5*%
G01*
G04 Define Apertures*
%ADD10R,0.973900X0.798700*%
%ADD11P,1.81452X8X22.5*%
%ADD12R,1.676400X1.676400*%
%ADD13R,2.123900X2.284100*%
%ADD14R,1.361200X1.114600*%
%ADD15R,1.400000X1.000000*%
%ADD16R,0.798700X0.973900*%
%ADD17R,1.164600X1.815300*%
%ADD18R,1.815300X1.164600*%
%ADD19R,0.800000X1.200000*%
%ADD20R,1.300000X2.150000*%
%ADD21R,1.200000X0.800000*%
%ADD22R,2.150000X1.300000*%
%ADD23C,0.152400*%
%ADD24C,0.756400*%
D10*
X508000Y109752D03*
X508000Y93448D03*
X533400Y109752D03*
X533400Y93448D03*
X558800Y109752D03*
X558800Y93448D03*
X584200Y109752D03*
X584200Y93448D03*
D11*
X533400Y508000D03*
X508000Y25400D03*
X558800Y508000D03*
X584200Y508000D03*
X609600Y508000D03*
D12*
X635000Y508000D03*
D11*
X508000Y508000D03*
X482600Y508000D03*
X457200Y508000D03*
X416560Y508000D03*
X391160Y508000D03*
X365760Y508000D03*
X340360Y508000D03*
X314960Y508000D03*
X289560Y508000D03*
X264160Y508000D03*
X238760Y508000D03*
X533400Y25400D03*
X558800Y25400D03*
X584200Y25400D03*
X609600Y25400D03*
X635000Y25400D03*
X457200Y25400D03*
X431800Y25400D03*
X406400Y25400D03*
X381000Y25400D03*
X355600Y25400D03*
X330200Y25400D03*
X685800Y508000D03*
X711200Y508000D03*
X736600Y508000D03*
X762000Y508000D03*
X787400Y508000D03*
X812800Y508000D03*
X838200Y508000D03*
X863600Y508000D03*
X660400Y25400D03*
X685800Y25400D03*
X736600Y25400D03*
X762000Y25400D03*
X787400Y25400D03*
X812800Y25400D03*
X838200Y25400D03*
X863600Y25400D03*
X889000Y25400D03*
X914400Y25400D03*
X215900Y508000D03*
X190500Y508000D03*
X304800Y25400D03*
X279400Y25400D03*
D13*
X38100Y110541D03*
X38100Y67259D03*
D14*
X266700Y117604D03*
X266700Y85596D03*
D15*
X39800Y152400D03*
X61800Y161900D03*
X61800Y142900D03*
X128700Y152400D03*
X150700Y161900D03*
X150700Y142900D03*
X112600Y114300D03*
X90600Y104800D03*
X90600Y123800D03*
X201500Y114300D03*
X179500Y104800D03*
X179500Y123800D03*
D16*
X185952Y73660D03*
X169648Y73660D03*
X109752Y165100D03*
X93448Y165100D03*
D17*
X334794Y119380D03*
X305286Y119380D03*
D18*
X76200Y90954D03*
X76200Y61446D03*
D10*
X139700Y80748D03*
X139700Y97052D03*
X228600Y80748D03*
X228600Y97052D03*
D19*
X215900Y45130D03*
X228400Y45130D03*
D20*
X196900Y22180D03*
X247400Y22180D03*
D21*
X970870Y81035D03*
X970870Y93535D03*
X970870Y106035D03*
X970870Y118535D03*
X970870Y131035D03*
X970870Y143535D03*
X970870Y156035D03*
X970870Y168535D03*
X970870Y181035D03*
X970870Y193535D03*
D22*
X993820Y62035D03*
X993820Y212535D03*
D19*
X127000Y45130D03*
X139500Y45130D03*
D20*
X108000Y22180D03*
X158500Y22180D03*
D21*
X45130Y241300D03*
X45130Y228800D03*
X45130Y216300D03*
X45130Y203800D03*
D22*
X22180Y260300D03*
X22180Y184800D03*
D21*
X45130Y342900D03*
X45130Y330400D03*
X45130Y317900D03*
X45130Y305400D03*
D22*
X22180Y361900D03*
X22180Y286400D03*
D21*
X45130Y444500D03*
X45130Y432000D03*
X45130Y419500D03*
X45130Y407000D03*
D22*
X22180Y463500D03*
X22180Y388000D03*
D19*
X127000Y488270D03*
X114500Y488270D03*
X102000Y488270D03*
X89500Y488270D03*
D20*
X146000Y511220D03*
X70500Y511220D03*
D10*
X508000Y152932D03*
X508000Y136628D03*
X533400Y152932D03*
X533400Y136628D03*
X558800Y152932D03*
X558800Y136628D03*
X584200Y152932D03*
X584200Y136628D03*
D21*
X970870Y292100D03*
X970870Y304600D03*
X970870Y317100D03*
X970870Y329600D03*
D22*
X993820Y273100D03*
X993820Y348600D03*
D10*
X838615Y389152D03*
X838615Y372848D03*
X863600Y389152D03*
X863600Y372848D03*
D23*
X500380Y81280D02*
X495300Y86360D01*
X495300Y142240D01*
X508000Y93448D02*
X508000Y81280D01*
X500380Y81280D01*
X495300Y142240D02*
X452120Y185420D01*
X508000Y81280D02*
X508000Y25400D01*
D24*
X452120Y185420D03*
D23*
X76000Y228800D02*
X45130Y228800D01*
X76000Y228800D02*
X76200Y228600D01*
D24*
X76200Y228600D03*
D23*
X520700Y86360D02*
X525780Y81280D01*
X520700Y86360D02*
X520700Y177800D01*
X533400Y93448D02*
X533400Y81280D01*
X525780Y81280D01*
X520700Y177800D02*
X431800Y266700D01*
X533400Y81280D02*
X533400Y25400D01*
D24*
X431800Y266700D03*
D23*
X76000Y330400D02*
X45130Y330400D01*
X76000Y330400D02*
X76200Y330200D01*
D24*
X76200Y330200D03*
D23*
X546100Y86360D02*
X551180Y81280D01*
X546100Y86360D02*
X546100Y190500D01*
X558800Y93448D02*
X558800Y81280D01*
X551180Y81280D01*
X546100Y190500D02*
X381000Y355600D01*
X558800Y81280D02*
X558800Y25400D01*
D24*
X381000Y355600D03*
D23*
X76000Y432000D02*
X45130Y432000D01*
X76000Y432000D02*
X76200Y431800D01*
D24*
X76200Y431800D03*
D23*
X571500Y86360D02*
X576580Y81280D01*
X571500Y86360D02*
X571500Y203200D01*
X584200Y93448D02*
X584200Y81280D01*
X576580Y81280D01*
X571500Y203200D02*
X330200Y444500D01*
X584200Y81280D02*
X584200Y25400D01*
D24*
X330200Y444500D03*
D23*
X114500Y457400D02*
X114500Y488270D01*
X114500Y457400D02*
X114300Y457200D01*
D24*
X114300Y457200D03*
D23*
X215900Y73660D02*
X215900Y45130D01*
D24*
X215900Y73660D03*
D23*
X127000Y73660D02*
X127000Y45130D01*
D24*
X127000Y73660D03*
D23*
X951006Y131035D02*
X970870Y131035D01*
X951006Y131035D02*
X939800Y142240D01*
D24*
X939800Y142240D03*
D23*
X38100Y67259D02*
X38100Y38100D01*
D24*
X38100Y38100D03*
D23*
X185952Y73660D02*
X215900Y73660D01*
X116840Y165100D02*
X109752Y165100D01*
X116840Y165100D02*
X121920Y170180D01*
X121920Y172720D01*
D24*
X121920Y172720D03*
X292100Y63500D03*
D23*
X266700Y76200D02*
X266700Y85596D01*
X266700Y76200D02*
X279400Y63500D01*
X292100Y63500D01*
X76200Y50800D02*
X63500Y38100D01*
X38100Y38100D01*
X45130Y407000D02*
X45130Y419500D01*
X63100Y419500D01*
X76200Y406400D01*
D24*
X76200Y406400D03*
D23*
X45130Y317900D02*
X45130Y305400D01*
X62910Y317900D02*
X76010Y304800D01*
X62910Y317900D02*
X45130Y317900D01*
X76010Y304800D02*
X76200Y304800D01*
D24*
X76200Y304800D03*
D23*
X45130Y216300D02*
X45130Y203800D01*
X67990Y216300D02*
X76010Y208280D01*
X67990Y216300D02*
X45130Y216300D01*
X76010Y208280D02*
X76200Y208280D01*
D24*
X76200Y208280D03*
D23*
X89500Y488270D02*
X102000Y488270D01*
X89500Y488270D02*
X88900Y487670D01*
X88900Y457200D01*
D24*
X88900Y457200D03*
D23*
X584200Y177800D02*
X584200Y152932D01*
D24*
X584200Y177800D03*
D23*
X558800Y177800D02*
X558800Y152932D01*
D24*
X558800Y177800D03*
D23*
X533400Y177800D02*
X533400Y152932D01*
D24*
X533400Y177800D03*
D23*
X508000Y177800D02*
X508000Y152932D01*
D24*
X508000Y177800D03*
D23*
X305286Y119380D02*
X294640Y119380D01*
X292100Y116840D01*
X292100Y63500D01*
X76200Y61446D02*
X76200Y50800D01*
X940000Y304600D02*
X970870Y304600D01*
X940000Y304600D02*
X939800Y304800D01*
D24*
X939800Y304800D03*
D23*
X923866Y181035D02*
X970870Y181035D01*
X923866Y181035D02*
X635000Y469900D01*
X635000Y508000D01*
X923666Y168535D02*
X970870Y168535D01*
X923666Y168535D02*
X609600Y482600D01*
X609600Y508000D01*
X948266Y118535D02*
X970870Y118535D01*
X948266Y118535D02*
X584200Y482600D01*
X584200Y508000D01*
X39800Y152400D02*
X27940Y152400D01*
X25400Y154940D01*
X25400Y167640D01*
X30480Y172720D01*
X76200Y172720D01*
X88900Y185420D01*
X88900Y228600D01*
X88900Y330200D01*
X88900Y406400D01*
X88900Y431800D01*
X27940Y152400D02*
X25400Y149860D01*
X25400Y139700D01*
X38100Y127000D01*
X38100Y110541D01*
X78080Y104800D02*
X90600Y104800D01*
X78080Y104800D02*
X63500Y119380D01*
X63500Y124460D01*
X55880Y132080D01*
X43180Y132080D01*
X38100Y127000D01*
X76200Y102920D02*
X78080Y104800D01*
X88900Y406400D02*
X127000Y444500D01*
X127000Y488270D01*
X76200Y342900D02*
X45130Y342900D01*
X76200Y342900D02*
X88900Y330200D01*
X76200Y241300D02*
X45130Y241300D01*
X76200Y241300D02*
X88900Y228600D01*
X76200Y444500D02*
X45130Y444500D01*
X76200Y444500D02*
X88900Y431800D01*
X76200Y102920D02*
X76200Y90954D01*
X846066Y81035D02*
X970870Y81035D01*
X863600Y355600D02*
X863600Y372848D01*
D24*
X863600Y355600D03*
X838200Y355600D03*
D23*
X838200Y372433D01*
X838615Y372848D01*
D24*
X838200Y88900D03*
D23*
X846066Y81035D01*
X901700Y292100D02*
X970870Y292100D01*
X901700Y292100D02*
X838200Y355600D01*
X228400Y80548D02*
X228400Y45130D01*
X228400Y80548D02*
X228600Y80748D01*
X139700Y80748D02*
X139700Y45330D01*
X139500Y45130D01*
X179500Y104800D02*
X181000Y104800D01*
X190500Y114300D01*
X190500Y127000D01*
X203200Y139700D01*
X350520Y132080D02*
X457200Y25400D01*
X350520Y132080D02*
X342900Y139700D01*
X254000Y139700D01*
X203200Y139700D01*
X128700Y152400D02*
X128700Y166800D01*
X139700Y177800D01*
X165100Y177800D01*
X203200Y139700D01*
X266700Y127000D02*
X266700Y117604D01*
X266700Y127000D02*
X254000Y139700D01*
X334794Y119380D02*
X345440Y119380D01*
X350520Y124460D01*
X350520Y132080D01*
X73000Y142900D02*
X61800Y142900D01*
X73000Y142900D02*
X76200Y139700D01*
X76200Y127000D01*
X79400Y123800D01*
X90600Y123800D01*
X93448Y165100D02*
X83820Y165100D01*
X78740Y160020D01*
X78740Y148640D01*
X73000Y142900D01*
X150700Y142900D02*
X161900Y142900D01*
X165100Y139700D01*
X165100Y127000D01*
X168300Y123800D01*
X179500Y123800D01*
X169648Y73660D02*
X162560Y73660D01*
X157480Y78740D01*
X157480Y112980D01*
X168300Y123800D01*
X228600Y106680D02*
X228600Y97052D01*
X228600Y106680D02*
X220980Y114300D01*
X201500Y114300D01*
X139700Y106680D02*
X139700Y97052D01*
X139700Y106680D02*
X132080Y114300D01*
X112600Y114300D01*
X838200Y508000D02*
X838615Y507585D01*
X838615Y406400D01*
X838615Y389152D01*
X850900Y394115D02*
X838615Y406400D01*
X850900Y394115D02*
X850900Y355600D01*
X889400Y317100D01*
X970870Y317100D01*
X863600Y406400D02*
X863600Y508000D01*
X863600Y406400D02*
X863600Y389152D01*
X876300Y393700D02*
X863600Y406400D01*
X876300Y393700D02*
X876300Y342900D01*
X889600Y329600D01*
X970870Y329600D01*
X508000Y136628D02*
X508000Y109752D01*
X533400Y109752D02*
X533400Y136628D01*
X558800Y136628D02*
X558800Y109752D01*
X584200Y109752D02*
X584200Y136628D01*
M02*
