G04 EAGLE Gerber RS-274X export*
G75*
%MOMM*%
%FSLAX34Y34*%
%LPD*%
%INSolderpaste Top*%
%IPPOS*%
%AMOC8*
5,1,8,0,0,1.08239X$1,22.5*%
G01*
G04 Define Apertures*
%ADD10R,0.973900X0.798700*%
%ADD11R,2.123900X2.284100*%
%ADD12R,1.361200X1.114600*%
%ADD13R,1.400000X1.000000*%
%ADD14R,0.798700X0.973900*%
%ADD15R,1.164600X1.815300*%
%ADD16R,1.815300X1.164600*%
%ADD17R,0.800000X1.200000*%
%ADD18R,1.300000X2.150000*%
%ADD19R,1.200000X0.800000*%
%ADD20R,2.150000X1.300000*%
D10*
X508000Y109752D03*
X508000Y93448D03*
X533400Y109752D03*
X533400Y93448D03*
X558800Y109752D03*
X558800Y93448D03*
X584200Y109752D03*
X584200Y93448D03*
D11*
X38100Y110541D03*
X38100Y67259D03*
D12*
X266700Y117604D03*
X266700Y85596D03*
D13*
X39800Y152400D03*
X61800Y161900D03*
X61800Y142900D03*
X128700Y152400D03*
X150700Y161900D03*
X150700Y142900D03*
X112600Y114300D03*
X90600Y104800D03*
X90600Y123800D03*
X201500Y114300D03*
X179500Y104800D03*
X179500Y123800D03*
D14*
X185952Y73660D03*
X169648Y73660D03*
X109752Y165100D03*
X93448Y165100D03*
D15*
X334794Y119380D03*
X305286Y119380D03*
D16*
X76200Y90954D03*
X76200Y61446D03*
D10*
X139700Y80748D03*
X139700Y97052D03*
X228600Y80748D03*
X228600Y97052D03*
D17*
X215900Y45130D03*
X228400Y45130D03*
D18*
X196900Y22180D03*
X247400Y22180D03*
D19*
X970870Y81035D03*
X970870Y93535D03*
X970870Y106035D03*
X970870Y118535D03*
X970870Y131035D03*
X970870Y143535D03*
X970870Y156035D03*
X970870Y168535D03*
X970870Y181035D03*
X970870Y193535D03*
D20*
X993820Y62035D03*
X993820Y212535D03*
D17*
X127000Y45130D03*
X139500Y45130D03*
D18*
X108000Y22180D03*
X158500Y22180D03*
D19*
X45130Y241300D03*
X45130Y228800D03*
X45130Y216300D03*
X45130Y203800D03*
D20*
X22180Y260300D03*
X22180Y184800D03*
D19*
X45130Y342900D03*
X45130Y330400D03*
X45130Y317900D03*
X45130Y305400D03*
D20*
X22180Y361900D03*
X22180Y286400D03*
D19*
X45130Y444500D03*
X45130Y432000D03*
X45130Y419500D03*
X45130Y407000D03*
D20*
X22180Y463500D03*
X22180Y388000D03*
D17*
X127000Y488270D03*
X114500Y488270D03*
X102000Y488270D03*
X89500Y488270D03*
D18*
X146000Y511220D03*
X70500Y511220D03*
D10*
X508000Y152932D03*
X508000Y136628D03*
X533400Y152932D03*
X533400Y136628D03*
X558800Y152932D03*
X558800Y136628D03*
X584200Y152932D03*
X584200Y136628D03*
D19*
X970870Y292100D03*
X970870Y304600D03*
X970870Y317100D03*
X970870Y329600D03*
D20*
X993820Y273100D03*
X993820Y348600D03*
D10*
X838615Y389152D03*
X838615Y372848D03*
X863600Y389152D03*
X863600Y372848D03*
M02*
