G04 EAGLE Gerber RS-274X export*
G75*
%MOMM*%
%FSLAX34Y34*%
%LPD*%
%INSoldermask Top*%
%IPPOS*%
%AMOC8*
5,1,8,0,0,1.08239X$1,22.5*%
G01*
G04 Define Apertures*
%ADD10R,1.177100X1.001900*%
%ADD11P,2.03446X8X22.5*%
%ADD12R,1.879600X1.879600*%
%ADD13R,2.327100X2.487300*%
%ADD14R,1.564400X1.317800*%
%ADD15R,1.603200X1.203200*%
%ADD16R,1.001900X1.177100*%
%ADD17R,1.367800X2.018500*%
%ADD18R,2.018500X1.367800*%
%ADD19R,1.003200X1.403200*%
%ADD20R,1.503200X2.353200*%
%ADD21R,1.403200X1.003200*%
%ADD22R,2.353200X1.503200*%
%ADD23C,0.959600*%
D10*
X508000Y109752D03*
X508000Y93448D03*
X533400Y109752D03*
X533400Y93448D03*
X558800Y109752D03*
X558800Y93448D03*
X584200Y109752D03*
X584200Y93448D03*
D11*
X533400Y508000D03*
X508000Y25400D03*
X558800Y508000D03*
X584200Y508000D03*
X609600Y508000D03*
D12*
X635000Y508000D03*
D11*
X508000Y508000D03*
X482600Y508000D03*
X457200Y508000D03*
X416560Y508000D03*
X391160Y508000D03*
X365760Y508000D03*
X340360Y508000D03*
X314960Y508000D03*
X289560Y508000D03*
X264160Y508000D03*
X238760Y508000D03*
X533400Y25400D03*
X558800Y25400D03*
X584200Y25400D03*
X609600Y25400D03*
X635000Y25400D03*
X457200Y25400D03*
X431800Y25400D03*
X406400Y25400D03*
X381000Y25400D03*
X355600Y25400D03*
X330200Y25400D03*
X685800Y508000D03*
X711200Y508000D03*
X736600Y508000D03*
X762000Y508000D03*
X787400Y508000D03*
X812800Y508000D03*
X838200Y508000D03*
X863600Y508000D03*
X660400Y25400D03*
X685800Y25400D03*
X736600Y25400D03*
X762000Y25400D03*
X787400Y25400D03*
X812800Y25400D03*
X838200Y25400D03*
X863600Y25400D03*
X889000Y25400D03*
X914400Y25400D03*
X215900Y508000D03*
X190500Y508000D03*
X304800Y25400D03*
X279400Y25400D03*
D13*
X38100Y110541D03*
X38100Y67259D03*
D14*
X266700Y117604D03*
X266700Y85596D03*
D15*
X39800Y152400D03*
X61800Y161900D03*
X61800Y142900D03*
X128700Y152400D03*
X150700Y161900D03*
X150700Y142900D03*
X112600Y114300D03*
X90600Y104800D03*
X90600Y123800D03*
X201500Y114300D03*
X179500Y104800D03*
X179500Y123800D03*
D16*
X185952Y73660D03*
X169648Y73660D03*
X109752Y165100D03*
X93448Y165100D03*
D17*
X334794Y119380D03*
X305286Y119380D03*
D18*
X76200Y90954D03*
X76200Y61446D03*
D10*
X139700Y80748D03*
X139700Y97052D03*
X228600Y80748D03*
X228600Y97052D03*
D19*
X215900Y45130D03*
X228400Y45130D03*
D20*
X196900Y22180D03*
X247400Y22180D03*
D21*
X970870Y81035D03*
X970870Y93535D03*
X970870Y106035D03*
X970870Y118535D03*
X970870Y131035D03*
X970870Y143535D03*
X970870Y156035D03*
X970870Y168535D03*
X970870Y181035D03*
X970870Y193535D03*
D22*
X993820Y62035D03*
X993820Y212535D03*
D19*
X127000Y45130D03*
X139500Y45130D03*
D20*
X108000Y22180D03*
X158500Y22180D03*
D21*
X45130Y241300D03*
X45130Y228800D03*
X45130Y216300D03*
X45130Y203800D03*
D22*
X22180Y260300D03*
X22180Y184800D03*
D21*
X45130Y342900D03*
X45130Y330400D03*
X45130Y317900D03*
X45130Y305400D03*
D22*
X22180Y361900D03*
X22180Y286400D03*
D21*
X45130Y444500D03*
X45130Y432000D03*
X45130Y419500D03*
X45130Y407000D03*
D22*
X22180Y463500D03*
X22180Y388000D03*
D19*
X127000Y488270D03*
X114500Y488270D03*
X102000Y488270D03*
X89500Y488270D03*
D20*
X146000Y511220D03*
X70500Y511220D03*
D10*
X508000Y152932D03*
X508000Y136628D03*
X533400Y152932D03*
X533400Y136628D03*
X558800Y152932D03*
X558800Y136628D03*
X584200Y152932D03*
X584200Y136628D03*
D21*
X970870Y292100D03*
X970870Y304600D03*
X970870Y317100D03*
X970870Y329600D03*
D22*
X993820Y273100D03*
X993820Y348600D03*
D10*
X838615Y389152D03*
X838615Y372848D03*
X863600Y389152D03*
X863600Y372848D03*
D23*
X452120Y185420D03*
X76200Y228600D03*
X431800Y266700D03*
X76200Y330200D03*
X381000Y355600D03*
X76200Y431800D03*
X330200Y444500D03*
X114300Y457200D03*
X215900Y73660D03*
X127000Y73660D03*
X939800Y142240D03*
X38100Y38100D03*
X121920Y172720D03*
X292100Y63500D03*
X76200Y406400D03*
X76200Y304800D03*
X76200Y208280D03*
X88900Y457200D03*
X584200Y177800D03*
X558800Y177800D03*
X533400Y177800D03*
X508000Y177800D03*
X939800Y304800D03*
X863600Y355600D03*
X838200Y355600D03*
X838200Y88900D03*
M02*
