G04 EAGLE Gerber RS-274X export*
G75*
%MOMM*%
%FSLAX34Y34*%
%LPD*%
%INSoldermask Bottom*%
%IPPOS*%
%AMOC8*
5,1,8,0,0,1.08239X$1,22.5*%
G01*
G04 Define Apertures*
%ADD10P,2.03446X8X22.5*%
%ADD11R,1.879600X1.879600*%
%ADD12C,0.959600*%
D10*
X533400Y508000D03*
X508000Y25400D03*
X558800Y508000D03*
X584200Y508000D03*
X609600Y508000D03*
D11*
X635000Y508000D03*
D10*
X508000Y508000D03*
X482600Y508000D03*
X457200Y508000D03*
X416560Y508000D03*
X391160Y508000D03*
X365760Y508000D03*
X340360Y508000D03*
X314960Y508000D03*
X289560Y508000D03*
X264160Y508000D03*
X238760Y508000D03*
X533400Y25400D03*
X558800Y25400D03*
X584200Y25400D03*
X609600Y25400D03*
X635000Y25400D03*
X457200Y25400D03*
X431800Y25400D03*
X406400Y25400D03*
X381000Y25400D03*
X355600Y25400D03*
X330200Y25400D03*
X685800Y508000D03*
X711200Y508000D03*
X736600Y508000D03*
X762000Y508000D03*
X787400Y508000D03*
X812800Y508000D03*
X838200Y508000D03*
X863600Y508000D03*
X660400Y25400D03*
X685800Y25400D03*
X736600Y25400D03*
X762000Y25400D03*
X787400Y25400D03*
X812800Y25400D03*
X838200Y25400D03*
X863600Y25400D03*
X889000Y25400D03*
X914400Y25400D03*
X215900Y508000D03*
X190500Y508000D03*
X304800Y25400D03*
X279400Y25400D03*
D12*
X452120Y185420D03*
X76200Y228600D03*
X431800Y266700D03*
X76200Y330200D03*
X381000Y355600D03*
X76200Y431800D03*
X330200Y444500D03*
X114300Y457200D03*
X215900Y73660D03*
X127000Y73660D03*
X939800Y142240D03*
X38100Y38100D03*
X121920Y172720D03*
X292100Y63500D03*
X76200Y406400D03*
X76200Y304800D03*
X76200Y208280D03*
X88900Y457200D03*
X584200Y177800D03*
X558800Y177800D03*
X533400Y177800D03*
X508000Y177800D03*
X939800Y304800D03*
X863600Y355600D03*
X838200Y355600D03*
X838200Y88900D03*
M02*
